M48
METRIC,LZ,000.000
;FILE_FORMAT=3:3
;TYPE=PLATED
;Layer: PTH_Through
;EasyEDA v6.5.39, 2025-03-28 13:23:23
;25c97bdbec6547b0a312f0d393c7469d,953214928e7c43af8b9c7e5a0e4489c6,10
;Gerber Generator version 0.2
;Holesize 1 = 0.900 mm
T01C0.900
;Holesize 2 = 0.901 mm
T02C0.901
;Holesize 3 = 0.915 mm
T03C0.915
;Holesize 4 = 1.000 mm
T04C1.000
;Holesize 5 = 1.101 mm
T05C1.101
%
G05
G90
T01
X015240Y019812
X015240Y027432
X011557Y027432
X011557Y019812
X051562Y023622
X051562Y031242
X057023Y023368
X057023Y030988
T02
X003556Y034163
X003556Y031623
X006858Y019515
X008128Y017315
X016934Y008382
X019134Y007112
X031242Y003937
X033782Y003937
X047963Y008509
X045763Y007239
X058293Y019515
X057023Y017315
X061468Y034163
X061468Y031623
X057023Y048471
X058293Y046271
X008001Y048471
X006731Y046271
X019007Y058674
X016807Y057404
X033782Y061849
X031242Y061849
X048090Y057404
X045890Y058674
X008001Y027138
X008001Y022138
X053848Y026075
X053848Y031075
T03
X051054Y045400
X058674Y033589
T04
X014097Y031737
X011557Y031737
X009017Y031737
X006477Y031737
X006477Y039637
X009017Y039637
X011557Y039637
X014097Y039637
X051054Y043447
X053594Y043447
X056134Y043447
X058674Y043447
X058674Y035547
X056134Y035547
X053594Y035547
X051054Y035547
T05
X030988Y054483
X033528Y054483
X032004Y013589
X034544Y013589
X032004Y009398
X034544Y009398
X025908Y054483
X025908Y050292
M30
