G04 Layer: TopLayer*
G04 EasyEDA v6.5.39, 2025-03-28 13:23:23*
G04 25c97bdbec6547b0a312f0d393c7469d,953214928e7c43af8b9c7e5a0e4489c6,10*
G04 Gerber Generator version 0.2*
G04 Scale: 100 percent, Rotated: No, Reflected: No *
G04 Dimensions in millimeters *
G04 leading zeros omitted , absolute positions ,4 integer and 5 decimal *
%FSLAX45Y45*%
%MOMM*%

%ADD10C,1.0000*%
%ADD11R,1.7000X1.5748*%
%ADD12C,1.7000*%
%ADD13C,1.6510*%
%ADD14C,1.8796*%
%ADD15C,1.6002*%
%ADD16R,1.6002X1.6002*%
%ADD17C,1.5240*%
%ADD18C,0.0152*%

%LPD*%
G36*
X1615135Y4526635D02*
G01*
X1611274Y4527397D01*
X1607972Y4529582D01*
X1383284Y4754067D01*
X1381099Y4757369D01*
X1380337Y4761230D01*
X1381099Y4765141D01*
X1383284Y4768443D01*
X1755648Y5140807D01*
X1758950Y5143042D01*
X1762861Y5143804D01*
X3228441Y5143855D01*
X3237280Y5144668D01*
X3239719Y5145074D01*
X3248355Y5147208D01*
X3250692Y5147970D01*
X3258921Y5151374D01*
X3261106Y5152491D01*
X3268726Y5157114D01*
X3277565Y5164175D01*
X3408324Y5294934D01*
X3415385Y5303774D01*
X3420008Y5311394D01*
X3421126Y5313578D01*
X3424529Y5321808D01*
X3425291Y5324144D01*
X3427425Y5332780D01*
X3427831Y5335219D01*
X3428644Y5343956D01*
X3428695Y5362244D01*
X3429508Y5366156D01*
X3431692Y5369407D01*
X3434994Y5371642D01*
X3438855Y5372404D01*
X4422038Y5372404D01*
X4425950Y5371642D01*
X4429252Y5369407D01*
X4867452Y4931206D01*
X4869738Y4927650D01*
X4870399Y4923434D01*
X4869230Y4919319D01*
X4866538Y4916017D01*
X4862677Y4914138D01*
X4858410Y4914036D01*
X4851044Y4915204D01*
X1651812Y4915204D01*
X1645310Y4914392D01*
X1639773Y4912309D01*
X1634642Y4908753D01*
X1631594Y4905756D01*
X1628952Y4902149D01*
X1626463Y4896612D01*
X1625295Y4889144D01*
X1625295Y4536795D01*
X1624533Y4532884D01*
X1622298Y4529582D01*
X1619046Y4527397D01*
G37*

%LPD*%
G36*
X3251047Y215188D02*
G01*
X3171901Y216204D01*
X3092805Y219252D01*
X3013811Y224332D01*
X2934970Y231495D01*
X2856382Y240639D01*
X2777998Y251815D01*
X2699969Y265023D01*
X2622245Y280212D01*
X2544978Y297383D01*
X2468168Y316585D01*
X2391918Y337718D01*
X2316175Y360832D01*
X2241092Y385876D01*
X2166670Y412851D01*
X2092960Y441706D01*
X2020062Y472490D01*
X1947925Y505104D01*
X1876653Y539597D01*
X1806346Y575919D01*
X1736953Y614019D01*
X1668576Y653897D01*
X1601216Y695502D01*
X1534972Y738835D01*
X1469898Y783894D01*
X1405991Y830580D01*
X1343304Y878890D01*
X1281836Y928827D01*
X1221740Y980287D01*
X1162964Y1033322D01*
X1105560Y1087831D01*
X1049578Y1143812D01*
X995070Y1201216D01*
X942086Y1259992D01*
X890574Y1320139D01*
X840638Y1381556D01*
X792327Y1444244D01*
X745642Y1508201D01*
X700633Y1573276D01*
X657301Y1639519D01*
X615645Y1706880D01*
X575818Y1775256D01*
X537718Y1844649D01*
X501396Y1914956D01*
X466902Y1986229D01*
X434289Y2058365D01*
X403555Y2131314D01*
X374650Y2205024D01*
X347726Y2279446D01*
X322681Y2354529D01*
X299567Y2430221D01*
X278434Y2506522D01*
X259283Y2583332D01*
X242062Y2660599D01*
X226872Y2738272D01*
X213715Y2816352D01*
X202539Y2894685D01*
X193395Y2973324D01*
X186283Y3052165D01*
X181152Y3131159D01*
X178104Y3210255D01*
X177088Y3289401D01*
X178104Y3368548D01*
X181203Y3447643D01*
X186283Y3526637D01*
X190398Y3572459D01*
X191414Y3576065D01*
X193700Y3579012D01*
X196850Y3580993D01*
X200558Y3581704D01*
X256844Y3581704D01*
X260705Y3580942D01*
X264007Y3578707D01*
X266242Y3575405D01*
X267004Y3571544D01*
X267004Y3481527D01*
X266547Y3478580D01*
X265277Y3475888D01*
X261670Y3470503D01*
X255422Y3457803D01*
X250850Y3444341D01*
X248107Y3430473D01*
X247142Y3416300D01*
X248107Y3402126D01*
X250850Y3388258D01*
X255422Y3374796D01*
X261670Y3362096D01*
X269595Y3350310D01*
X278942Y3339642D01*
X289610Y3330295D01*
X301396Y3322370D01*
X314096Y3316122D01*
X327558Y3311550D01*
X341426Y3308807D01*
X355600Y3307842D01*
X369773Y3308807D01*
X383641Y3311550D01*
X397103Y3316122D01*
X409803Y3322370D01*
X421589Y3330295D01*
X432257Y3339642D01*
X441604Y3350310D01*
X449529Y3362096D01*
X455777Y3374796D01*
X460349Y3388258D01*
X463092Y3402126D01*
X464058Y3416300D01*
X463092Y3430473D01*
X460349Y3444341D01*
X455777Y3457803D01*
X449529Y3470503D01*
X441604Y3482289D01*
X432257Y3492957D01*
X422249Y3501745D01*
X419709Y3505200D01*
X418795Y3509365D01*
X418795Y3571544D01*
X419557Y3575405D01*
X421792Y3578707D01*
X425094Y3580942D01*
X428955Y3581704D01*
X815441Y3581755D01*
X824280Y3582568D01*
X826719Y3582974D01*
X835355Y3585108D01*
X837692Y3585870D01*
X845921Y3589274D01*
X848106Y3590391D01*
X855726Y3595014D01*
X864565Y3602075D01*
X957224Y3694734D01*
X964285Y3703574D01*
X968908Y3711194D01*
X970026Y3713378D01*
X973429Y3721608D01*
X974191Y3723944D01*
X976325Y3732580D01*
X976731Y3735019D01*
X977544Y3743858D01*
X977595Y3886149D01*
X978255Y3889756D01*
X980135Y3892854D01*
X985723Y3899204D01*
X993394Y3910736D01*
X999540Y3923182D01*
X1004011Y3936288D01*
X1006703Y3949852D01*
X1007618Y3963670D01*
X1006703Y3977487D01*
X1004011Y3991101D01*
X999540Y4004208D01*
X993394Y4016654D01*
X985723Y4028135D01*
X976579Y4038549D01*
X966165Y4047693D01*
X954633Y4055414D01*
X942238Y4061510D01*
X929132Y4065981D01*
X915517Y4068673D01*
X901700Y4069587D01*
X887882Y4068673D01*
X874318Y4065981D01*
X861161Y4061510D01*
X848766Y4055414D01*
X837234Y4047693D01*
X826820Y4038549D01*
X817676Y4028135D01*
X810006Y4016654D01*
X803859Y4004208D01*
X799439Y3991101D01*
X796696Y3977487D01*
X795782Y3963670D01*
X796696Y3949852D01*
X799439Y3936288D01*
X803859Y3923182D01*
X810006Y3910736D01*
X817676Y3899204D01*
X823264Y3892854D01*
X825144Y3889756D01*
X825804Y3886149D01*
X825804Y3782161D01*
X825042Y3778250D01*
X822807Y3774948D01*
X784352Y3736492D01*
X781050Y3734257D01*
X777138Y3733495D01*
X221335Y3733495D01*
X217119Y3734409D01*
X213664Y3737000D01*
X211582Y3740810D01*
X211277Y3745077D01*
X213766Y3762501D01*
X226923Y3840530D01*
X242112Y3918204D01*
X259334Y3995470D01*
X278485Y4072280D01*
X299618Y4148582D01*
X322732Y4224274D01*
X347776Y4299356D01*
X374751Y4373778D01*
X403656Y4447489D01*
X434390Y4520438D01*
X467055Y4592523D01*
X501497Y4663795D01*
X537819Y4734153D01*
X575919Y4803546D01*
X615797Y4871923D01*
X657402Y4939233D01*
X700786Y5005476D01*
X745794Y5070602D01*
X792480Y5134508D01*
X840841Y5197195D01*
X890727Y5258612D01*
X942238Y5318760D01*
X995273Y5377535D01*
X1049782Y5434939D01*
X1105763Y5490870D01*
X1163167Y5545378D01*
X1221943Y5598414D01*
X1282039Y5649874D01*
X1343507Y5699810D01*
X1406194Y5748121D01*
X1470101Y5794806D01*
X1535226Y5839866D01*
X1601470Y5883198D01*
X1668780Y5924804D01*
X1737156Y5964682D01*
X1806549Y6002782D01*
X1876907Y6039053D01*
X1948180Y6073546D01*
X2020265Y6106160D01*
X2093214Y6136944D01*
X2166924Y6165799D01*
X2241346Y6192774D01*
X2316429Y6217818D01*
X2392172Y6240881D01*
X2468422Y6262065D01*
X2545232Y6281216D01*
X2622499Y6298387D01*
X2700223Y6313576D01*
X2778252Y6326784D01*
X2856636Y6337960D01*
X2935224Y6347104D01*
X3014065Y6354216D01*
X3093059Y6359296D01*
X3172155Y6362344D01*
X3251352Y6363360D01*
X3330498Y6362344D01*
X3409594Y6359296D01*
X3488588Y6354216D01*
X3567429Y6347053D01*
X3646017Y6337909D01*
X3724401Y6326733D01*
X3802430Y6313525D01*
X3880154Y6298336D01*
X3957421Y6281166D01*
X4034231Y6261963D01*
X4110482Y6240830D01*
X4186224Y6217716D01*
X4261307Y6192672D01*
X4335729Y6165697D01*
X4409440Y6136843D01*
X4482338Y6106058D01*
X4554474Y6073444D01*
X4625746Y6038951D01*
X4696053Y6002629D01*
X4765446Y5964529D01*
X4833823Y5924651D01*
X4901184Y5883046D01*
X4967427Y5839714D01*
X4971338Y5836970D01*
X4974336Y5833719D01*
X4975707Y5829554D01*
X4975148Y5825134D01*
X4972761Y5821426D01*
X4970627Y5819292D01*
X4967325Y5817057D01*
X4963414Y5816295D01*
X4890363Y5816295D01*
X4886756Y5816955D01*
X4883658Y5818835D01*
X4874971Y5826404D01*
X4863185Y5834329D01*
X4850485Y5840577D01*
X4837074Y5845149D01*
X4823155Y5847892D01*
X4808982Y5848858D01*
X4794808Y5847892D01*
X4780940Y5845149D01*
X4767478Y5840577D01*
X4754778Y5834329D01*
X4742992Y5826404D01*
X4732324Y5817057D01*
X4722977Y5806389D01*
X4715052Y5794603D01*
X4708804Y5781903D01*
X4704232Y5768441D01*
X4701489Y5754573D01*
X4700524Y5740400D01*
X4701489Y5726226D01*
X4704232Y5712358D01*
X4708804Y5698896D01*
X4715052Y5686196D01*
X4722977Y5674410D01*
X4732324Y5663742D01*
X4742992Y5654395D01*
X4754778Y5646470D01*
X4767478Y5640222D01*
X4780940Y5635650D01*
X4794808Y5632907D01*
X4808982Y5631942D01*
X4823155Y5632907D01*
X4837074Y5635650D01*
X4850485Y5640222D01*
X4863185Y5646470D01*
X4874971Y5654395D01*
X4883658Y5661964D01*
X4886756Y5663844D01*
X4890363Y5664504D01*
X5001717Y5664555D01*
X5010556Y5665368D01*
X5012994Y5665774D01*
X5021630Y5667908D01*
X5023967Y5668670D01*
X5032197Y5672074D01*
X5034381Y5673191D01*
X5042001Y5677814D01*
X5050840Y5684875D01*
X5100015Y5733999D01*
X5103012Y5736082D01*
X5106568Y5736945D01*
X5110175Y5736539D01*
X5113426Y5734862D01*
X5159095Y5699658D01*
X5220563Y5649722D01*
X5280660Y5598261D01*
X5339435Y5545226D01*
X5396839Y5490718D01*
X5452821Y5434736D01*
X5507329Y5377332D01*
X5560314Y5318556D01*
X5611825Y5258409D01*
X5661761Y5196992D01*
X5710072Y5134305D01*
X5741212Y5091633D01*
X5742787Y5088432D01*
X5743143Y5084876D01*
X5742228Y5081422D01*
X5740196Y5078476D01*
X5646775Y4985004D01*
X5641136Y4978146D01*
X5635091Y4968544D01*
X5633974Y4966309D01*
X5630570Y4958130D01*
X5629808Y4955794D01*
X5627674Y4947158D01*
X5627268Y4944719D01*
X5626455Y4935931D01*
X5626404Y4928362D01*
X5625744Y4924856D01*
X5623864Y4921758D01*
X5616295Y4913071D01*
X5608370Y4901285D01*
X5602122Y4888585D01*
X5597550Y4875174D01*
X5594807Y4861255D01*
X5593842Y4847082D01*
X5594807Y4832908D01*
X5597550Y4819040D01*
X5602122Y4805578D01*
X5608370Y4792878D01*
X5616295Y4781092D01*
X5625642Y4770424D01*
X5636310Y4761077D01*
X5648096Y4753152D01*
X5660796Y4746904D01*
X5674258Y4742332D01*
X5688126Y4739589D01*
X5702300Y4738624D01*
X5716473Y4739589D01*
X5730341Y4742332D01*
X5743803Y4746904D01*
X5756503Y4753152D01*
X5768289Y4761077D01*
X5778957Y4770424D01*
X5788304Y4781092D01*
X5796229Y4792878D01*
X5802477Y4805578D01*
X5807049Y4819040D01*
X5809792Y4832908D01*
X5810758Y4847082D01*
X5809792Y4861255D01*
X5807049Y4875174D01*
X5802477Y4888585D01*
X5796229Y4901285D01*
X5793435Y4905451D01*
X5792012Y4908600D01*
X5791758Y4912106D01*
X5792724Y4915458D01*
X5794705Y4918252D01*
X5824524Y4948123D01*
X5828334Y4950510D01*
X5832754Y4951018D01*
X5837021Y4949596D01*
X5840222Y4946497D01*
X5845098Y4939030D01*
X5886754Y4871669D01*
X5926582Y4803292D01*
X5964682Y4733899D01*
X6001004Y4663592D01*
X6035497Y4592320D01*
X6068110Y4520184D01*
X6098844Y4447235D01*
X6127750Y4373524D01*
X6154674Y4299102D01*
X6179718Y4224020D01*
X6202832Y4148328D01*
X6223965Y4072026D01*
X6243116Y3995216D01*
X6260338Y3917950D01*
X6275527Y3840276D01*
X6288684Y3762197D01*
X6299860Y3683863D01*
X6309004Y3605225D01*
X6316116Y3526383D01*
X6321247Y3447389D01*
X6324295Y3368294D01*
X6325311Y3289147D01*
X6324295Y3210001D01*
X6321196Y3130905D01*
X6316116Y3051911D01*
X6309004Y2973070D01*
X6299860Y2894431D01*
X6288633Y2816047D01*
X6275476Y2738018D01*
X6260287Y2660345D01*
X6243066Y2583078D01*
X6240881Y2577896D01*
X6237732Y2575204D01*
X6233718Y2573985D01*
X6229604Y2574493D01*
X6225997Y2576626D01*
X6223558Y2580030D01*
X6222695Y2584094D01*
X6222695Y3080918D01*
X6223355Y3084525D01*
X6225235Y3087624D01*
X6232804Y3096310D01*
X6240729Y3108096D01*
X6246977Y3120796D01*
X6251549Y3134258D01*
X6254292Y3148126D01*
X6255258Y3162300D01*
X6254292Y3176473D01*
X6251549Y3190341D01*
X6246977Y3203803D01*
X6240729Y3216503D01*
X6232804Y3228289D01*
X6223457Y3238957D01*
X6212789Y3248304D01*
X6201003Y3256229D01*
X6188303Y3262477D01*
X6174841Y3267049D01*
X6160973Y3269792D01*
X6146800Y3270758D01*
X6132626Y3269792D01*
X6118758Y3267049D01*
X6105296Y3262477D01*
X6092596Y3256229D01*
X6080810Y3248304D01*
X6070142Y3238957D01*
X6060795Y3228289D01*
X6052870Y3216503D01*
X6046622Y3203803D01*
X6042050Y3190341D01*
X6039307Y3176473D01*
X6038342Y3162300D01*
X6039307Y3148126D01*
X6042050Y3134258D01*
X6046622Y3120796D01*
X6052870Y3108096D01*
X6060795Y3096310D01*
X6068364Y3087624D01*
X6070244Y3084525D01*
X6070904Y3080918D01*
X6070904Y2512161D01*
X6070142Y2508250D01*
X6067907Y2504948D01*
X6002375Y2439365D01*
X5995314Y2430526D01*
X5990691Y2422906D01*
X5989574Y2420721D01*
X5986170Y2412492D01*
X5985408Y2410155D01*
X5983274Y2401519D01*
X5982868Y2399080D01*
X5982055Y2390241D01*
X5982004Y2245461D01*
X5981242Y2241550D01*
X5979007Y2238248D01*
X5945733Y2204974D01*
X5942228Y2202688D01*
X5938113Y2202027D01*
X5934049Y2203043D01*
X5930747Y2205583D01*
X5928766Y2209292D01*
X5928461Y2213457D01*
X5929833Y2217420D01*
X5934608Y2225294D01*
X5935726Y2227478D01*
X5939129Y2235708D01*
X5939891Y2238044D01*
X5942025Y2246680D01*
X5942431Y2249119D01*
X5943244Y2257958D01*
X5943244Y2542641D01*
X5942431Y2551480D01*
X5942025Y2553919D01*
X5939891Y2562555D01*
X5939129Y2564892D01*
X5935726Y2573121D01*
X5934608Y2575306D01*
X5929985Y2582926D01*
X5922924Y2591765D01*
X5855665Y2659024D01*
X5846826Y2666085D01*
X5839206Y2670708D01*
X5837021Y2671826D01*
X5828792Y2675229D01*
X5826455Y2675991D01*
X5817819Y2678125D01*
X5815380Y2678531D01*
X5806541Y2679344D01*
X5649061Y2679395D01*
X5645150Y2680157D01*
X5641848Y2682392D01*
X5616092Y2708148D01*
X5613857Y2711450D01*
X5613095Y2715361D01*
X5613095Y2995726D01*
X5614060Y2999994D01*
X5616752Y3003499D01*
X5620664Y3005531D01*
X5625084Y3005734D01*
X5629148Y3004007D01*
X5639206Y2996895D01*
X5652211Y2989884D01*
X5665978Y2984550D01*
X5680252Y2980994D01*
X5694934Y2979166D01*
X5709666Y2979166D01*
X5724347Y2980994D01*
X5738622Y2984550D01*
X5752388Y2989884D01*
X5765393Y2996895D01*
X5777433Y3005429D01*
X5788355Y3015335D01*
X5797956Y3026562D01*
X5806084Y3038856D01*
X5812688Y3052064D01*
X5817616Y3065983D01*
X5820765Y3080410D01*
X5822137Y3095091D01*
X5821781Y3106369D01*
X5822492Y3110433D01*
X5824728Y3113887D01*
X5922924Y3212134D01*
X5929985Y3220974D01*
X5934608Y3228594D01*
X5935726Y3230778D01*
X5939129Y3239008D01*
X5939891Y3241344D01*
X5942025Y3249980D01*
X5942431Y3252419D01*
X5943244Y3261258D01*
X5943295Y3287064D01*
X5944006Y3290722D01*
X5945936Y3293872D01*
X5947511Y3295650D01*
X5955233Y3306876D01*
X5961380Y3319068D01*
X5965850Y3331921D01*
X5968593Y3345281D01*
X5969508Y3358896D01*
X5968593Y3372510D01*
X5965850Y3385870D01*
X5961380Y3398774D01*
X5955233Y3410915D01*
X5947511Y3422192D01*
X5945936Y3423920D01*
X5944006Y3427069D01*
X5943295Y3430727D01*
X5943295Y3477158D01*
X5943955Y3480765D01*
X5945835Y3483864D01*
X5951423Y3490264D01*
X5959094Y3501745D01*
X5965240Y3514191D01*
X5969660Y3527298D01*
X5972403Y3540912D01*
X5973318Y3554729D01*
X5972403Y3568547D01*
X5969660Y3582111D01*
X5965240Y3595217D01*
X5959094Y3607663D01*
X5951423Y3619195D01*
X5942279Y3629609D01*
X5931865Y3638702D01*
X5920333Y3646424D01*
X5907938Y3652520D01*
X5894781Y3656990D01*
X5881217Y3659682D01*
X5867400Y3660597D01*
X5853582Y3659682D01*
X5839968Y3656990D01*
X5826861Y3652520D01*
X5814466Y3646424D01*
X5802934Y3638702D01*
X5792520Y3629609D01*
X5783376Y3619195D01*
X5775706Y3607663D01*
X5769559Y3595217D01*
X5765088Y3582111D01*
X5762396Y3568547D01*
X5761482Y3554729D01*
X5762396Y3540912D01*
X5765088Y3527298D01*
X5769559Y3514191D01*
X5775706Y3501745D01*
X5783376Y3490264D01*
X5788964Y3483864D01*
X5790844Y3480765D01*
X5791504Y3477158D01*
X5791504Y3430676D01*
X5790946Y3427323D01*
X5789320Y3424377D01*
X5783224Y3416655D01*
X5776264Y3404920D01*
X5770981Y3392373D01*
X5767374Y3379215D01*
X5765546Y3365703D01*
X5765546Y3352088D01*
X5767374Y3338576D01*
X5770981Y3325418D01*
X5776264Y3312871D01*
X5785561Y3297123D01*
X5786018Y3293465D01*
X5785104Y3289909D01*
X5783021Y3286912D01*
X5717336Y3221177D01*
X5713730Y3218840D01*
X5709513Y3218230D01*
X5702300Y3218688D01*
X5682030Y3217468D01*
X5678424Y3218942D01*
X5675680Y3221685D01*
X5674106Y3225241D01*
X5674004Y3229102D01*
X5675376Y3232708D01*
X5681726Y3243478D01*
X5685129Y3251708D01*
X5685891Y3254044D01*
X5688025Y3262680D01*
X5688431Y3265119D01*
X5689244Y3273958D01*
X5689295Y3477158D01*
X5689955Y3480765D01*
X5691835Y3483864D01*
X5697423Y3490264D01*
X5705094Y3501745D01*
X5711240Y3514191D01*
X5715660Y3527298D01*
X5718403Y3540912D01*
X5719318Y3554729D01*
X5718403Y3568547D01*
X5715660Y3582111D01*
X5711240Y3595217D01*
X5705094Y3607663D01*
X5697423Y3619195D01*
X5688279Y3629609D01*
X5677865Y3638702D01*
X5666333Y3646424D01*
X5653938Y3652520D01*
X5640781Y3656990D01*
X5627217Y3659682D01*
X5613400Y3660597D01*
X5599582Y3659682D01*
X5597702Y3659327D01*
X5593384Y3659378D01*
X5589524Y3661206D01*
X5586730Y3664508D01*
X5585561Y3668623D01*
X5586171Y3672890D01*
X5588508Y3676497D01*
X5668924Y3756914D01*
X5674563Y3763772D01*
X5680608Y3773424D01*
X5681726Y3775608D01*
X5685129Y3783837D01*
X5685891Y3786174D01*
X5688025Y3794760D01*
X5688431Y3797198D01*
X5689244Y3806037D01*
X5689295Y4267200D01*
X5689955Y4270756D01*
X5691835Y4273905D01*
X5697423Y4280255D01*
X5705094Y4291787D01*
X5711240Y4304182D01*
X5715660Y4317288D01*
X5718403Y4330903D01*
X5719318Y4344720D01*
X5718403Y4358538D01*
X5715660Y4372102D01*
X5711240Y4385259D01*
X5705094Y4397654D01*
X5697423Y4409186D01*
X5688279Y4419600D01*
X5677865Y4428744D01*
X5666333Y4436414D01*
X5653938Y4442561D01*
X5640781Y4446981D01*
X5627217Y4449724D01*
X5613400Y4450588D01*
X5599582Y4449724D01*
X5585968Y4446981D01*
X5572861Y4442561D01*
X5560466Y4436414D01*
X5548934Y4428744D01*
X5538520Y4419600D01*
X5529376Y4409186D01*
X5521706Y4397654D01*
X5515559Y4385259D01*
X5511088Y4372102D01*
X5508396Y4358538D01*
X5507482Y4344720D01*
X5508396Y4330903D01*
X5511088Y4317288D01*
X5515559Y4304182D01*
X5521706Y4291787D01*
X5529376Y4280255D01*
X5534964Y4273854D01*
X5536844Y4270756D01*
X5537504Y4267200D01*
X5537504Y3844340D01*
X5536742Y3840479D01*
X5534507Y3837178D01*
X5360568Y3663187D01*
X5357571Y3661156D01*
X5354015Y3660241D01*
X5345582Y3659682D01*
X5331968Y3656990D01*
X5318861Y3652520D01*
X5306466Y3646424D01*
X5294934Y3638702D01*
X5284520Y3629609D01*
X5275376Y3619195D01*
X5267706Y3607663D01*
X5261559Y3595217D01*
X5257088Y3582111D01*
X5254396Y3568547D01*
X5253837Y3560064D01*
X5252974Y3556558D01*
X5250891Y3553561D01*
X5100675Y3403295D01*
X5095036Y3396437D01*
X5088991Y3386785D01*
X5087874Y3384600D01*
X5084470Y3376371D01*
X5083708Y3374034D01*
X5081574Y3365449D01*
X5081168Y3363010D01*
X5080355Y3354171D01*
X5080304Y3221532D01*
X5079288Y3217164D01*
X5076494Y3213658D01*
X5075428Y3212795D01*
X5065166Y3202178D01*
X5056276Y3190392D01*
X5048910Y3177641D01*
X5043170Y3164027D01*
X5039106Y3149854D01*
X5036820Y3135274D01*
X5036413Y3120491D01*
X5037734Y3105810D01*
X5040884Y3091383D01*
X5045811Y3077464D01*
X5052415Y3064256D01*
X5060543Y3051962D01*
X5070144Y3040735D01*
X5081066Y3030829D01*
X5093106Y3022295D01*
X5106111Y3015284D01*
X5119878Y3009950D01*
X5134152Y3006394D01*
X5148834Y3004566D01*
X5163566Y3004566D01*
X5178247Y3006394D01*
X5192522Y3009950D01*
X5206288Y3015284D01*
X5219293Y3022295D01*
X5231333Y3030829D01*
X5242255Y3040735D01*
X5245658Y3044748D01*
X5249164Y3047339D01*
X5253380Y3048304D01*
X5285587Y3048304D01*
X5288584Y3047847D01*
X5291277Y3046526D01*
X5293512Y3044444D01*
X5302707Y3032912D01*
X5312918Y3023057D01*
X5324297Y3014573D01*
X5336692Y3007563D01*
X5349849Y3002229D01*
X5363616Y2998622D01*
X5377688Y2996844D01*
X5391912Y2996844D01*
X5405983Y2998622D01*
X5419750Y3002229D01*
X5432907Y3007563D01*
X5446115Y3015081D01*
X5450128Y3016351D01*
X5454294Y3015894D01*
X5457952Y3013760D01*
X5460441Y3010357D01*
X5461304Y3006242D01*
X5461355Y2677058D01*
X5462168Y2668219D01*
X5462574Y2665780D01*
X5464708Y2657144D01*
X5465470Y2654808D01*
X5468874Y2646578D01*
X5469991Y2644394D01*
X5474614Y2636774D01*
X5481675Y2627934D01*
X5561634Y2547975D01*
X5570474Y2540914D01*
X5578094Y2536291D01*
X5580278Y2535174D01*
X5588508Y2531770D01*
X5590844Y2531008D01*
X5599480Y2528874D01*
X5601919Y2528468D01*
X5610758Y2527655D01*
X5768238Y2527604D01*
X5772150Y2526842D01*
X5775452Y2524607D01*
X5788507Y2511552D01*
X5790742Y2508250D01*
X5791504Y2504338D01*
X5791504Y2439822D01*
X5790793Y2436114D01*
X5788761Y2432913D01*
X5785713Y2430627D01*
X5782056Y2429662D01*
X5778296Y2430119D01*
X5774944Y2431897D01*
X5771540Y2434640D01*
X5758992Y2442413D01*
X5745581Y2448560D01*
X5731560Y2453030D01*
X5717032Y2455773D01*
X5702300Y2456688D01*
X5687568Y2455773D01*
X5673039Y2453030D01*
X5659018Y2448560D01*
X5645607Y2442413D01*
X5633059Y2434640D01*
X5621528Y2425395D01*
X5612231Y2415794D01*
X5608929Y2413508D01*
X5604967Y2412695D01*
X5271058Y2412695D01*
X5267604Y2413304D01*
X5264505Y2415082D01*
X5262270Y2417775D01*
X5256123Y2428392D01*
X5247233Y2440178D01*
X5236972Y2450795D01*
X5225440Y2460040D01*
X5212892Y2467813D01*
X5206847Y2470607D01*
X5203901Y2472639D01*
X5006492Y2670048D01*
X5004257Y2673350D01*
X5003495Y2677261D01*
X5003495Y3837838D01*
X5004257Y3841750D01*
X5006492Y3845051D01*
X5032248Y3870807D01*
X5035550Y3873042D01*
X5039461Y3873804D01*
X5120741Y3873855D01*
X5129580Y3874668D01*
X5132019Y3875074D01*
X5140655Y3877208D01*
X5142992Y3877970D01*
X5151221Y3881374D01*
X5153406Y3882491D01*
X5161026Y3887114D01*
X5169865Y3894175D01*
X5414924Y4139234D01*
X5421985Y4148074D01*
X5426608Y4155694D01*
X5427726Y4157878D01*
X5431129Y4166108D01*
X5431891Y4168444D01*
X5434025Y4177080D01*
X5434431Y4179519D01*
X5435244Y4188358D01*
X5435295Y4267200D01*
X5435955Y4270756D01*
X5437835Y4273905D01*
X5443423Y4280255D01*
X5451094Y4291787D01*
X5457240Y4304182D01*
X5461660Y4317288D01*
X5464403Y4330903D01*
X5465318Y4344720D01*
X5464403Y4358538D01*
X5461660Y4372102D01*
X5457240Y4385259D01*
X5451094Y4397654D01*
X5443423Y4409186D01*
X5434279Y4419600D01*
X5423865Y4428744D01*
X5412333Y4436414D01*
X5399938Y4442561D01*
X5386781Y4446981D01*
X5373217Y4449724D01*
X5359400Y4450588D01*
X5345582Y4449724D01*
X5331968Y4446981D01*
X5318861Y4442561D01*
X5306466Y4436414D01*
X5294934Y4428744D01*
X5284520Y4419600D01*
X5275376Y4409186D01*
X5267706Y4397654D01*
X5261559Y4385259D01*
X5257088Y4372102D01*
X5254396Y4358538D01*
X5253482Y4344720D01*
X5254396Y4330903D01*
X5257088Y4317288D01*
X5261559Y4304182D01*
X5267706Y4291787D01*
X5275376Y4280255D01*
X5280964Y4273854D01*
X5282844Y4270756D01*
X5283504Y4267200D01*
X5283504Y4226661D01*
X5282742Y4222750D01*
X5280507Y4219448D01*
X5089652Y4028592D01*
X5086350Y4026357D01*
X5082438Y4025595D01*
X5001158Y4025544D01*
X4992319Y4024731D01*
X4989880Y4024325D01*
X4981244Y4022191D01*
X4978908Y4021429D01*
X4970678Y4018026D01*
X4968494Y4016908D01*
X4960874Y4012285D01*
X4952034Y4005224D01*
X4894427Y3947718D01*
X4891176Y3945483D01*
X4887264Y3944721D01*
X4883353Y3945483D01*
X4880102Y3947718D01*
X4877866Y3950970D01*
X4877104Y3954881D01*
X4877104Y4888687D01*
X4875936Y4899710D01*
X4877511Y4903876D01*
X4880762Y4906975D01*
X4884978Y4908397D01*
X4889398Y4907838D01*
X4893208Y4905451D01*
X5026507Y4772152D01*
X5028742Y4768850D01*
X5029504Y4764938D01*
X5029504Y4611776D01*
X5028946Y4608423D01*
X5027320Y4605477D01*
X5021224Y4597755D01*
X5014264Y4586020D01*
X5008981Y4573473D01*
X5005374Y4560316D01*
X5003546Y4546803D01*
X5003546Y4533188D01*
X5005374Y4519676D01*
X5008981Y4506518D01*
X5014264Y4493971D01*
X5021224Y4482236D01*
X5027320Y4474565D01*
X5028946Y4471568D01*
X5029504Y4468266D01*
X5029504Y4422241D01*
X5028844Y4418685D01*
X5026964Y4415536D01*
X5021376Y4409186D01*
X5013706Y4397654D01*
X5007559Y4385259D01*
X5003088Y4372102D01*
X5000396Y4358538D01*
X4999482Y4344720D01*
X5000396Y4330903D01*
X5003088Y4317288D01*
X5007559Y4304182D01*
X5013706Y4291787D01*
X5021376Y4280255D01*
X5030520Y4269841D01*
X5040934Y4260697D01*
X5052466Y4253026D01*
X5064861Y4246880D01*
X5077968Y4242409D01*
X5091582Y4239717D01*
X5105400Y4238802D01*
X5119217Y4239717D01*
X5132781Y4242409D01*
X5145938Y4246880D01*
X5158333Y4253026D01*
X5169865Y4260697D01*
X5180279Y4269841D01*
X5189423Y4280255D01*
X5197094Y4291787D01*
X5203240Y4304182D01*
X5207660Y4317288D01*
X5210403Y4330903D01*
X5211318Y4344720D01*
X5210403Y4358538D01*
X5207660Y4372102D01*
X5203240Y4385259D01*
X5197094Y4397654D01*
X5189423Y4409186D01*
X5183835Y4415536D01*
X5181955Y4418685D01*
X5181295Y4422241D01*
X5181295Y4468164D01*
X5182006Y4471822D01*
X5183936Y4474972D01*
X5185511Y4476750D01*
X5193233Y4487976D01*
X5199380Y4500168D01*
X5203850Y4513021D01*
X5206593Y4526381D01*
X5207508Y4539996D01*
X5206593Y4553610D01*
X5203850Y4566970D01*
X5199380Y4579874D01*
X5193233Y4592015D01*
X5185511Y4603292D01*
X5183936Y4605020D01*
X5182006Y4608169D01*
X5181295Y4611827D01*
X5181244Y4803241D01*
X5180431Y4812080D01*
X5180025Y4814519D01*
X5177891Y4823155D01*
X5177129Y4825492D01*
X5173726Y4833721D01*
X5172608Y4835906D01*
X5167985Y4843526D01*
X5160924Y4852365D01*
X4509465Y5503824D01*
X4500626Y5510885D01*
X4493006Y5515508D01*
X4490821Y5516626D01*
X4482592Y5520029D01*
X4480255Y5520791D01*
X4471619Y5522925D01*
X4469180Y5523331D01*
X4460341Y5524144D01*
X3437737Y5524195D01*
X3434079Y5524906D01*
X3430930Y5526836D01*
X3421938Y5535015D01*
X3410305Y5543143D01*
X3397707Y5549696D01*
X3384346Y5554624D01*
X3370478Y5557774D01*
X3356356Y5559145D01*
X3342132Y5558688D01*
X3328111Y5556402D01*
X3314496Y5552338D01*
X3301492Y5546598D01*
X3289350Y5539232D01*
X3278225Y5530392D01*
X3268370Y5520182D01*
X3259886Y5508802D01*
X3252876Y5496407D01*
X3247542Y5483250D01*
X3243935Y5469483D01*
X3242157Y5455412D01*
X3242157Y5441188D01*
X3243935Y5427116D01*
X3247542Y5413349D01*
X3252876Y5400192D01*
X3259886Y5387797D01*
X3266033Y5379567D01*
X3267608Y5376367D01*
X3268014Y5372760D01*
X3267100Y5369255D01*
X3265068Y5366308D01*
X3197352Y5298592D01*
X3194050Y5296357D01*
X3190138Y5295595D01*
X1724558Y5295544D01*
X1715719Y5294731D01*
X1713280Y5294325D01*
X1704644Y5292191D01*
X1702307Y5291429D01*
X1694078Y5288026D01*
X1691893Y5286908D01*
X1684274Y5282285D01*
X1675434Y5275224D01*
X592175Y4191965D01*
X585114Y4183126D01*
X580491Y4175506D01*
X579374Y4173321D01*
X575970Y4165092D01*
X575208Y4162755D01*
X573074Y4154119D01*
X572668Y4151680D01*
X571855Y4142841D01*
X571804Y4041241D01*
X571144Y4037634D01*
X569264Y4034536D01*
X563676Y4028135D01*
X556006Y4016654D01*
X549859Y4004208D01*
X545439Y3991101D01*
X542696Y3977487D01*
X541782Y3963670D01*
X542696Y3949852D01*
X545439Y3936288D01*
X549859Y3923182D01*
X556006Y3910736D01*
X563676Y3899204D01*
X572820Y3888790D01*
X583234Y3879697D01*
X594766Y3871976D01*
X607161Y3865879D01*
X620318Y3861409D01*
X633882Y3858717D01*
X647700Y3857802D01*
X661517Y3858717D01*
X675132Y3861409D01*
X688238Y3865879D01*
X700633Y3871976D01*
X712165Y3879697D01*
X722579Y3888790D01*
X731723Y3899204D01*
X739394Y3910736D01*
X745540Y3923182D01*
X750011Y3936288D01*
X752703Y3949852D01*
X753618Y3963670D01*
X752703Y3977487D01*
X750011Y3991101D01*
X745540Y4004208D01*
X739394Y4016654D01*
X731723Y4028135D01*
X726135Y4034536D01*
X724255Y4037634D01*
X723595Y4041241D01*
X723595Y4104538D01*
X724357Y4108450D01*
X726592Y4111751D01*
X1261567Y4646726D01*
X1264869Y4648911D01*
X1268730Y4649673D01*
X1272641Y4648911D01*
X1275943Y4646726D01*
X1495907Y4426915D01*
X1498142Y4423613D01*
X1498904Y4419752D01*
X1498904Y3604361D01*
X1498142Y3600450D01*
X1495907Y3597148D01*
X1354175Y3455365D01*
X1347114Y3446526D01*
X1342491Y3438906D01*
X1341374Y3436721D01*
X1337970Y3428492D01*
X1337208Y3426155D01*
X1335074Y3417519D01*
X1334668Y3415080D01*
X1333855Y3406241D01*
X1333804Y3251200D01*
X1333144Y3247644D01*
X1331264Y3244494D01*
X1325676Y3238144D01*
X1318006Y3226612D01*
X1311859Y3214217D01*
X1307439Y3201111D01*
X1304696Y3187496D01*
X1303782Y3173679D01*
X1304696Y3159861D01*
X1307439Y3146298D01*
X1311859Y3133140D01*
X1318006Y3120745D01*
X1325676Y3109214D01*
X1331264Y3102864D01*
X1333144Y3099714D01*
X1333804Y3096158D01*
X1333855Y2854858D01*
X1334668Y2846019D01*
X1335074Y2843580D01*
X1337208Y2834944D01*
X1337970Y2832608D01*
X1341374Y2824378D01*
X1342491Y2822194D01*
X1347114Y2814574D01*
X1354175Y2805734D01*
X1401572Y2758287D01*
X1403807Y2754833D01*
X1404518Y2750769D01*
X1404213Y2739491D01*
X1405534Y2724810D01*
X1408684Y2710383D01*
X1413611Y2696464D01*
X1420215Y2683256D01*
X1428343Y2670962D01*
X1437944Y2659735D01*
X1448866Y2649829D01*
X1460906Y2641295D01*
X1473911Y2634284D01*
X1487678Y2628950D01*
X1501952Y2625394D01*
X1516634Y2623566D01*
X1531366Y2623566D01*
X1546047Y2625394D01*
X1560322Y2628950D01*
X1574088Y2634284D01*
X1587093Y2641295D01*
X1599133Y2649829D01*
X1608277Y2658160D01*
X1611630Y2660192D01*
X1615440Y2660802D01*
X1619250Y2659938D01*
X1622450Y2657703D01*
X1624533Y2654452D01*
X1625295Y2650642D01*
X1625295Y2073656D01*
X1624533Y2069744D01*
X1622298Y2066442D01*
X1618945Y2064257D01*
X1615033Y2063496D01*
X1611122Y2064359D01*
X1607820Y2066594D01*
X1604772Y2069795D01*
X1593240Y2079040D01*
X1580692Y2086813D01*
X1567281Y2092960D01*
X1553260Y2097430D01*
X1538732Y2100173D01*
X1524000Y2101088D01*
X1516786Y2100630D01*
X1512570Y2101240D01*
X1508963Y2103577D01*
X1437792Y2174748D01*
X1435557Y2178050D01*
X1434795Y2181961D01*
X1434744Y2402941D01*
X1433931Y2411780D01*
X1433525Y2414219D01*
X1431391Y2422855D01*
X1430629Y2425192D01*
X1427226Y2433421D01*
X1426108Y2435606D01*
X1421485Y2443226D01*
X1414424Y2452065D01*
X1234592Y2631948D01*
X1232357Y2635250D01*
X1231595Y2639161D01*
X1231595Y2645867D01*
X1232611Y2650236D01*
X1235405Y2653741D01*
X1236472Y2654604D01*
X1246733Y2665222D01*
X1255623Y2677007D01*
X1262989Y2689758D01*
X1268730Y2703372D01*
X1272794Y2717546D01*
X1275080Y2732125D01*
X1275537Y2746908D01*
X1274165Y2761589D01*
X1271016Y2776016D01*
X1266088Y2789936D01*
X1259484Y2803144D01*
X1251356Y2815437D01*
X1241755Y2826664D01*
X1234948Y2832862D01*
X1232458Y2836265D01*
X1231595Y2840380D01*
X1231595Y3096158D01*
X1232255Y3099714D01*
X1234135Y3102864D01*
X1239723Y3109214D01*
X1247394Y3120745D01*
X1253540Y3133140D01*
X1258011Y3146298D01*
X1260703Y3159861D01*
X1261618Y3173679D01*
X1260703Y3187496D01*
X1258011Y3201111D01*
X1253540Y3214217D01*
X1247394Y3226612D01*
X1239723Y3238144D01*
X1230579Y3248558D01*
X1220165Y3257702D01*
X1208633Y3265373D01*
X1196238Y3271520D01*
X1183132Y3275990D01*
X1169517Y3278682D01*
X1155700Y3279597D01*
X1141882Y3278682D01*
X1128318Y3275990D01*
X1115161Y3271520D01*
X1102766Y3265373D01*
X1091234Y3257702D01*
X1080820Y3248558D01*
X1071676Y3238144D01*
X1064006Y3226612D01*
X1058672Y3215843D01*
X1056132Y3212541D01*
X1052474Y3210610D01*
X1048359Y3210204D01*
X1044448Y3211525D01*
X1041349Y3214268D01*
X1039621Y3218027D01*
X1039571Y3222193D01*
X1040231Y3225800D01*
X1041044Y3234537D01*
X1041095Y3520338D01*
X1041857Y3524250D01*
X1044092Y3527551D01*
X1211224Y3694734D01*
X1218285Y3703574D01*
X1222908Y3711194D01*
X1224026Y3713378D01*
X1227429Y3721608D01*
X1228191Y3723944D01*
X1230325Y3732580D01*
X1230731Y3735019D01*
X1231544Y3743858D01*
X1231595Y3886149D01*
X1232255Y3889756D01*
X1234135Y3892854D01*
X1239723Y3899204D01*
X1247394Y3910736D01*
X1253540Y3923182D01*
X1258011Y3936288D01*
X1260703Y3949852D01*
X1261618Y3963670D01*
X1260703Y3977487D01*
X1258011Y3991101D01*
X1253540Y4004208D01*
X1247394Y4016654D01*
X1239723Y4028135D01*
X1230579Y4038549D01*
X1220165Y4047693D01*
X1208633Y4055414D01*
X1196238Y4061510D01*
X1183132Y4065981D01*
X1169517Y4068673D01*
X1155700Y4069587D01*
X1141882Y4068673D01*
X1128318Y4065981D01*
X1115161Y4061510D01*
X1102766Y4055414D01*
X1091234Y4047693D01*
X1080820Y4038549D01*
X1071676Y4028135D01*
X1064006Y4016654D01*
X1057859Y4004208D01*
X1053439Y3991101D01*
X1050696Y3977487D01*
X1049782Y3963670D01*
X1050696Y3949852D01*
X1053439Y3936288D01*
X1057859Y3923182D01*
X1064006Y3910736D01*
X1071676Y3899204D01*
X1077264Y3892854D01*
X1079144Y3889756D01*
X1079804Y3886149D01*
X1079804Y3782161D01*
X1079042Y3778250D01*
X1076807Y3774948D01*
X909675Y3607765D01*
X902614Y3598926D01*
X897991Y3591306D01*
X896874Y3589121D01*
X893470Y3580892D01*
X892708Y3578555D01*
X890574Y3569919D01*
X890168Y3567480D01*
X889355Y3558641D01*
X889304Y3287318D01*
X888695Y3283864D01*
X886968Y3280867D01*
X884377Y3278581D01*
X881126Y3277311D01*
X874318Y3275990D01*
X861161Y3271520D01*
X848766Y3265373D01*
X837234Y3257702D01*
X826820Y3248558D01*
X817676Y3238144D01*
X810006Y3226612D01*
X803859Y3214217D01*
X799439Y3201111D01*
X796696Y3187496D01*
X795782Y3173679D01*
X796696Y3159861D01*
X799439Y3146298D01*
X803859Y3133140D01*
X810006Y3120745D01*
X817676Y3109214D01*
X826820Y3098800D01*
X837234Y3089656D01*
X848766Y3081985D01*
X861161Y3075838D01*
X874318Y3071418D01*
X881126Y3070047D01*
X884377Y3068777D01*
X886968Y3066542D01*
X888695Y3063494D01*
X889304Y3060090D01*
X889304Y2414625D01*
X888542Y2410714D01*
X886307Y2407412D01*
X806348Y2327452D01*
X803046Y2325268D01*
X799134Y2324455D01*
X792988Y2324455D01*
X778916Y2322677D01*
X765149Y2319070D01*
X751992Y2313736D01*
X739597Y2306726D01*
X728218Y2298242D01*
X718007Y2288387D01*
X709168Y2277262D01*
X701802Y2265121D01*
X696061Y2252116D01*
X691997Y2238502D01*
X689711Y2224481D01*
X689254Y2210257D01*
X690626Y2196134D01*
X693775Y2182266D01*
X698703Y2168906D01*
X705256Y2156307D01*
X713384Y2144674D01*
X722934Y2134158D01*
X733755Y2124964D01*
X745693Y2117191D01*
X758494Y2111044D01*
X771956Y2106574D01*
X785926Y2103831D01*
X800049Y2102916D01*
X803554Y2102053D01*
X806551Y2099970D01*
X980948Y1925675D01*
X989787Y1918614D01*
X997407Y1913991D01*
X999591Y1912874D01*
X1007821Y1909470D01*
X1010158Y1908708D01*
X1018794Y1906574D01*
X1021181Y1906168D01*
X1030071Y1905355D01*
X1058367Y1905304D01*
X1062329Y1904492D01*
X1065631Y1902206D01*
X1074928Y1892604D01*
X1086459Y1883359D01*
X1099007Y1875586D01*
X1112418Y1869439D01*
X1126439Y1864969D01*
X1140968Y1862226D01*
X1155700Y1861312D01*
X1170432Y1862226D01*
X1184960Y1864969D01*
X1198981Y1869439D01*
X1212392Y1875586D01*
X1224940Y1883359D01*
X1236472Y1892604D01*
X1246733Y1903222D01*
X1255623Y1915007D01*
X1262989Y1927758D01*
X1268730Y1941372D01*
X1272794Y1955546D01*
X1275080Y1970125D01*
X1275537Y1984908D01*
X1274165Y1999589D01*
X1271016Y2014016D01*
X1266088Y2027936D01*
X1259484Y2041143D01*
X1251356Y2053437D01*
X1241755Y2064664D01*
X1230833Y2074570D01*
X1218793Y2083104D01*
X1205788Y2090115D01*
X1192022Y2095449D01*
X1177747Y2099005D01*
X1163066Y2100834D01*
X1148334Y2100834D01*
X1133652Y2099005D01*
X1119378Y2095449D01*
X1105611Y2090115D01*
X1092606Y2083104D01*
X1080566Y2074570D01*
X1070000Y2064969D01*
X1066698Y2062937D01*
X1062939Y2062327D01*
X1059129Y2063140D01*
X1055979Y2065274D01*
X914603Y2206650D01*
X912418Y2209952D01*
X911606Y2213813D01*
X912418Y2217724D01*
X914603Y2221026D01*
X1020724Y2327198D01*
X1027785Y2336038D01*
X1032408Y2343658D01*
X1033526Y2345842D01*
X1036929Y2354072D01*
X1037691Y2356408D01*
X1039825Y2365044D01*
X1040231Y2367483D01*
X1041044Y2376322D01*
X1041095Y2666085D01*
X1041958Y2670200D01*
X1044448Y2673604D01*
X1048054Y2675737D01*
X1052220Y2676194D01*
X1056233Y2674975D01*
X1059383Y2672232D01*
X1064666Y2665222D01*
X1074928Y2654604D01*
X1075994Y2653741D01*
X1078788Y2650236D01*
X1079804Y2645867D01*
X1079855Y2600858D01*
X1080668Y2592019D01*
X1081074Y2589580D01*
X1083208Y2580944D01*
X1083970Y2578608D01*
X1087374Y2570378D01*
X1088491Y2568194D01*
X1093114Y2560574D01*
X1100175Y2551734D01*
X1280007Y2371852D01*
X1282242Y2368550D01*
X1283004Y2364638D01*
X1283055Y2143658D01*
X1283868Y2134819D01*
X1284274Y2132380D01*
X1286408Y2123744D01*
X1287170Y2121408D01*
X1290574Y2113178D01*
X1291691Y2110994D01*
X1296314Y2103374D01*
X1303375Y2094534D01*
X1401572Y1996287D01*
X1403807Y1992833D01*
X1404518Y1988769D01*
X1404213Y1977491D01*
X1405534Y1962810D01*
X1408684Y1948383D01*
X1413611Y1934464D01*
X1420215Y1921256D01*
X1428343Y1908962D01*
X1437944Y1897735D01*
X1448866Y1887829D01*
X1460906Y1879295D01*
X1473911Y1872284D01*
X1487678Y1866950D01*
X1501952Y1863394D01*
X1516634Y1861566D01*
X1531366Y1861566D01*
X1546047Y1863394D01*
X1560322Y1866950D01*
X1574088Y1872284D01*
X1587093Y1879295D01*
X1599133Y1887829D01*
X1608277Y1896160D01*
X1611630Y1898192D01*
X1615440Y1898802D01*
X1619250Y1897938D01*
X1622450Y1895703D01*
X1624533Y1892452D01*
X1625295Y1888642D01*
X1625295Y1689912D01*
X1626107Y1683410D01*
X1628190Y1677873D01*
X1631746Y1672742D01*
X1634642Y1669846D01*
X1639773Y1666290D01*
X1645310Y1664207D01*
X1651812Y1663395D01*
X4850587Y1663395D01*
X4857089Y1664207D01*
X4862626Y1666290D01*
X4867757Y1669846D01*
X4870805Y1672843D01*
X4873447Y1676450D01*
X4875936Y1681988D01*
X4877104Y1689455D01*
X4877104Y2560218D01*
X4877866Y2564130D01*
X4880102Y2567381D01*
X4883353Y2569616D01*
X4887264Y2570378D01*
X4891176Y2569616D01*
X4894427Y2567381D01*
X5043271Y2418588D01*
X5045456Y2415286D01*
X5046218Y2411374D01*
X5045456Y2407462D01*
X5043170Y2402027D01*
X5039106Y2387854D01*
X5036820Y2373274D01*
X5036413Y2358491D01*
X5037734Y2343810D01*
X5040884Y2329383D01*
X5045811Y2315464D01*
X5052415Y2302256D01*
X5060543Y2289962D01*
X5070144Y2278735D01*
X5081066Y2268829D01*
X5093106Y2260295D01*
X5106111Y2253284D01*
X5119878Y2247950D01*
X5134152Y2244394D01*
X5148834Y2242566D01*
X5163566Y2242566D01*
X5178247Y2244394D01*
X5192522Y2247950D01*
X5206288Y2253284D01*
X5218176Y2259685D01*
X5220512Y2260600D01*
X5223002Y2260904D01*
X5605119Y2260904D01*
X5609336Y2259939D01*
X5612841Y2257348D01*
X5616244Y2253335D01*
X5627166Y2243429D01*
X5639206Y2234895D01*
X5652211Y2227884D01*
X5665978Y2222550D01*
X5680252Y2218994D01*
X5693562Y2217318D01*
X5697829Y2215794D01*
X5700979Y2212594D01*
X5702401Y2208326D01*
X5701893Y2203856D01*
X5699506Y2200046D01*
X5546852Y2047392D01*
X5543550Y2045157D01*
X5539638Y2044395D01*
X5356758Y2044344D01*
X5347919Y2043531D01*
X5345480Y2043125D01*
X5336844Y2040991D01*
X5334508Y2040229D01*
X5326278Y2036825D01*
X5324094Y2035708D01*
X5316474Y2031085D01*
X5307634Y2024024D01*
X4721352Y1437792D01*
X4718050Y1435557D01*
X4714138Y1434795D01*
X3539337Y1434795D01*
X3535679Y1435506D01*
X3532530Y1437436D01*
X3523538Y1445615D01*
X3511905Y1453743D01*
X3499307Y1460296D01*
X3485946Y1465224D01*
X3472078Y1468374D01*
X3457956Y1469745D01*
X3443732Y1469288D01*
X3429711Y1467002D01*
X3416096Y1462938D01*
X3403092Y1457198D01*
X3390950Y1449832D01*
X3379825Y1440992D01*
X3369970Y1430782D01*
X3361486Y1419402D01*
X3354476Y1407007D01*
X3349142Y1393850D01*
X3345535Y1380083D01*
X3343757Y1366012D01*
X3343757Y1351788D01*
X3345535Y1337716D01*
X3349142Y1323949D01*
X3354476Y1310792D01*
X3361486Y1298397D01*
X3369970Y1287018D01*
X3375609Y1281176D01*
X3377742Y1277924D01*
X3378504Y1274114D01*
X3378504Y1024585D01*
X3377742Y1020775D01*
X3375609Y1017524D01*
X3369970Y1011682D01*
X3361486Y1000302D01*
X3354476Y987907D01*
X3349142Y974750D01*
X3345535Y960983D01*
X3343757Y946912D01*
X3343757Y932687D01*
X3345535Y918616D01*
X3349142Y904849D01*
X3354476Y891692D01*
X3361486Y879297D01*
X3369970Y867918D01*
X3379825Y857707D01*
X3390950Y848868D01*
X3403092Y841502D01*
X3416096Y835710D01*
X3429711Y831697D01*
X3443732Y829411D01*
X3457956Y828954D01*
X3472078Y830326D01*
X3485946Y833475D01*
X3499307Y838403D01*
X3511905Y844956D01*
X3523538Y853084D01*
X3534054Y862634D01*
X3543249Y873455D01*
X3551021Y885393D01*
X3557168Y898194D01*
X3561638Y911656D01*
X3564382Y925626D01*
X3565296Y939800D01*
X3564382Y953973D01*
X3561638Y967943D01*
X3557168Y981405D01*
X3551021Y994206D01*
X3543249Y1006144D01*
X3533648Y1017320D01*
X3531158Y1020724D01*
X3530295Y1024839D01*
X3530295Y1272844D01*
X3531057Y1276705D01*
X3533292Y1280007D01*
X3536594Y1282242D01*
X3540455Y1283004D01*
X4752441Y1283055D01*
X4761280Y1283868D01*
X4763719Y1284274D01*
X4772355Y1286408D01*
X4774692Y1287170D01*
X4782921Y1290574D01*
X4785106Y1291691D01*
X4792726Y1296314D01*
X4801565Y1303375D01*
X5387848Y1889607D01*
X5391150Y1891842D01*
X5395061Y1892604D01*
X5577941Y1892655D01*
X5586780Y1893468D01*
X5589219Y1893874D01*
X5597855Y1896008D01*
X5600192Y1896770D01*
X5608421Y1900174D01*
X5610606Y1901291D01*
X5618226Y1905914D01*
X5627065Y1912975D01*
X5709615Y1995474D01*
X5713425Y1997862D01*
X5717895Y1998370D01*
X5722162Y1996897D01*
X5725363Y1993747D01*
X5726887Y1989480D01*
X5726430Y1985010D01*
X5724550Y1979574D01*
X5721807Y1965655D01*
X5720842Y1951482D01*
X5721807Y1937308D01*
X5724550Y1923440D01*
X5729122Y1909978D01*
X5735370Y1897278D01*
X5743295Y1885492D01*
X5752642Y1874824D01*
X5763310Y1865477D01*
X5775096Y1857552D01*
X5787796Y1851304D01*
X5801258Y1846732D01*
X5815126Y1843989D01*
X5829300Y1843024D01*
X5843473Y1843989D01*
X5857341Y1846732D01*
X5870803Y1851304D01*
X5883503Y1857552D01*
X5895289Y1865477D01*
X5905957Y1874824D01*
X5915304Y1885492D01*
X5923229Y1897278D01*
X5929477Y1909978D01*
X5934049Y1923440D01*
X5936792Y1937308D01*
X5937758Y1951482D01*
X5936792Y1965655D01*
X5935268Y1973427D01*
X5935167Y1976729D01*
X5936132Y1979879D01*
X5938062Y1982571D01*
X6070955Y2115515D01*
X6074257Y2117699D01*
X6078169Y2118512D01*
X6082080Y2117699D01*
X6085382Y2115464D01*
X6087567Y2112162D01*
X6088329Y2108250D01*
X6087516Y2104390D01*
X6068009Y2058111D01*
X6035344Y1986025D01*
X6000902Y1914753D01*
X5964580Y1844395D01*
X5926480Y1775002D01*
X5886602Y1706625D01*
X5844997Y1639316D01*
X5801614Y1573072D01*
X5756605Y1507947D01*
X5709920Y1444040D01*
X5661558Y1381353D01*
X5611672Y1319936D01*
X5560161Y1259789D01*
X5507126Y1201013D01*
X5452618Y1143609D01*
X5396636Y1087678D01*
X5339232Y1033170D01*
X5280456Y980135D01*
X5220360Y928674D01*
X5158892Y878738D01*
X5096205Y830427D01*
X5032298Y783742D01*
X4967173Y738682D01*
X4900930Y695350D01*
X4833620Y653745D01*
X4765243Y613867D01*
X4695850Y575767D01*
X4625492Y539496D01*
X4554220Y505002D01*
X4482134Y472389D01*
X4409186Y441604D01*
X4335475Y412750D01*
X4261053Y385775D01*
X4185970Y360730D01*
X4110228Y337667D01*
X4033977Y316484D01*
X3957167Y297332D01*
X3879900Y280162D01*
X3802176Y264972D01*
X3724148Y251764D01*
X3645763Y240588D01*
X3567176Y231444D01*
X3488334Y224332D01*
X3409340Y219252D01*
X3330244Y216204D01*
G37*

%LPC*%
G36*
X3124200Y285242D02*
G01*
X3138373Y286207D01*
X3152241Y288950D01*
X3165703Y293522D01*
X3178403Y299770D01*
X3190189Y307695D01*
X3200857Y317042D01*
X3210204Y327710D01*
X3218129Y339496D01*
X3224377Y352196D01*
X3228949Y365658D01*
X3231692Y379526D01*
X3232658Y393700D01*
X3231692Y407873D01*
X3228949Y421741D01*
X3224377Y435203D01*
X3218129Y447903D01*
X3210204Y459689D01*
X3200857Y470357D01*
X3190189Y479704D01*
X3178403Y487629D01*
X3165703Y493877D01*
X3152241Y498449D01*
X3138373Y501192D01*
X3126841Y501954D01*
X3123336Y502869D01*
X3120339Y504901D01*
X3099765Y525424D01*
X3090926Y532485D01*
X3083306Y537108D01*
X3081121Y538226D01*
X3072892Y541629D01*
X3070555Y542391D01*
X3061919Y544525D01*
X3059480Y544931D01*
X3050641Y545744D01*
X2397861Y545795D01*
X2393950Y546557D01*
X2390648Y548792D01*
X2172665Y766724D01*
X2163826Y773785D01*
X2156206Y778408D01*
X2154021Y779526D01*
X2145792Y782929D01*
X2143455Y783691D01*
X2134819Y785825D01*
X2132380Y786231D01*
X2123541Y787044D01*
X1994763Y787095D01*
X1991156Y787755D01*
X1988057Y789635D01*
X1979371Y797204D01*
X1967585Y805129D01*
X1954885Y811377D01*
X1941474Y815949D01*
X1927555Y818692D01*
X1913382Y819658D01*
X1899208Y818692D01*
X1885340Y815949D01*
X1871878Y811377D01*
X1859178Y805129D01*
X1847392Y797204D01*
X1836724Y787857D01*
X1827377Y777189D01*
X1819452Y765403D01*
X1813204Y752703D01*
X1808632Y739241D01*
X1805889Y725373D01*
X1804924Y711200D01*
X1805889Y697026D01*
X1808632Y683158D01*
X1813204Y669696D01*
X1819452Y656996D01*
X1827377Y645210D01*
X1836724Y634542D01*
X1847392Y625195D01*
X1859178Y617270D01*
X1871878Y611022D01*
X1885340Y606450D01*
X1899208Y603707D01*
X1913382Y602742D01*
X1927555Y603707D01*
X1941474Y606450D01*
X1954885Y611022D01*
X1967585Y617270D01*
X1979371Y625195D01*
X1988057Y632764D01*
X1991156Y634644D01*
X1994763Y635304D01*
X2085238Y635304D01*
X2089150Y634542D01*
X2092452Y632307D01*
X2310434Y414375D01*
X2319274Y407314D01*
X2326894Y402691D01*
X2329078Y401574D01*
X2337308Y398170D01*
X2339644Y397408D01*
X2348280Y395274D01*
X2350719Y394868D01*
X2359558Y394055D01*
X3006242Y394004D01*
X3009950Y393293D01*
X3013151Y391261D01*
X3015437Y388162D01*
X3016351Y384505D01*
X3016707Y379526D01*
X3019450Y365658D01*
X3024022Y352196D01*
X3030270Y339496D01*
X3038195Y327710D01*
X3047542Y317042D01*
X3058210Y307695D01*
X3069996Y299770D01*
X3082696Y293522D01*
X3096158Y288950D01*
X3110026Y286207D01*
G37*
G36*
X1693418Y729742D02*
G01*
X1707591Y730707D01*
X1721459Y733450D01*
X1734921Y738022D01*
X1747621Y744270D01*
X1759407Y752195D01*
X1770075Y761542D01*
X1779422Y772210D01*
X1787347Y783996D01*
X1793595Y796696D01*
X1798167Y810158D01*
X1800910Y824026D01*
X1801875Y838200D01*
X1800910Y852373D01*
X1798167Y866241D01*
X1793595Y879703D01*
X1787347Y892403D01*
X1779422Y904189D01*
X1770075Y914857D01*
X1759407Y924204D01*
X1747621Y932129D01*
X1734921Y938377D01*
X1721459Y942949D01*
X1707591Y945692D01*
X1696059Y946454D01*
X1692554Y947369D01*
X1689557Y949401D01*
X923645Y1715312D01*
X921308Y1718919D01*
X920699Y1723186D01*
X921258Y1731518D01*
X920292Y1745691D01*
X917549Y1759559D01*
X912977Y1773021D01*
X906729Y1785721D01*
X898804Y1797507D01*
X889457Y1808175D01*
X878789Y1817522D01*
X867003Y1825447D01*
X854303Y1831695D01*
X840841Y1836267D01*
X826973Y1839010D01*
X812800Y1839975D01*
X798626Y1839010D01*
X784758Y1836267D01*
X771296Y1831695D01*
X758596Y1825447D01*
X746810Y1817522D01*
X736142Y1808175D01*
X726795Y1797507D01*
X718870Y1785721D01*
X712622Y1773021D01*
X708050Y1759559D01*
X705307Y1745691D01*
X704342Y1731518D01*
X705307Y1717344D01*
X708050Y1703425D01*
X712622Y1690014D01*
X718870Y1677314D01*
X726795Y1665528D01*
X736142Y1654860D01*
X746810Y1645462D01*
X758596Y1637588D01*
X771296Y1631340D01*
X784758Y1626768D01*
X797661Y1624228D01*
X800455Y1623212D01*
X802843Y1621434D01*
X1582216Y842060D01*
X1584248Y839063D01*
X1585163Y835558D01*
X1585925Y824026D01*
X1588668Y810158D01*
X1593240Y796696D01*
X1599488Y783996D01*
X1607362Y772210D01*
X1616760Y761542D01*
X1627428Y752195D01*
X1639214Y744270D01*
X1651914Y738022D01*
X1665325Y733450D01*
X1679244Y730707D01*
G37*
G36*
X4796282Y742442D02*
G01*
X4810455Y743407D01*
X4824374Y746150D01*
X4837785Y750722D01*
X4850485Y756970D01*
X4862271Y764895D01*
X4872939Y774242D01*
X4882337Y784910D01*
X4890211Y796696D01*
X4896459Y809396D01*
X4900269Y820674D01*
X4902708Y824585D01*
X5698439Y1620316D01*
X5701436Y1622348D01*
X5704941Y1623263D01*
X5716473Y1624025D01*
X5730341Y1626768D01*
X5743803Y1631340D01*
X5756503Y1637588D01*
X5768289Y1645462D01*
X5778957Y1654860D01*
X5788304Y1665528D01*
X5796229Y1677314D01*
X5802477Y1690014D01*
X5807049Y1703425D01*
X5809792Y1717344D01*
X5810758Y1731518D01*
X5809792Y1745691D01*
X5807049Y1759559D01*
X5802477Y1773021D01*
X5796229Y1785721D01*
X5788304Y1797507D01*
X5778957Y1808175D01*
X5768289Y1817522D01*
X5756503Y1825447D01*
X5743803Y1831695D01*
X5730341Y1836267D01*
X5716473Y1839010D01*
X5702300Y1839975D01*
X5688126Y1839010D01*
X5674258Y1836267D01*
X5660796Y1831695D01*
X5648096Y1825447D01*
X5636310Y1817522D01*
X5625642Y1808175D01*
X5616295Y1797507D01*
X5608370Y1785721D01*
X5602122Y1773021D01*
X5597550Y1759559D01*
X5594807Y1745691D01*
X5594045Y1734159D01*
X5593130Y1730654D01*
X5591098Y1727657D01*
X4823815Y960374D01*
X4821123Y958443D01*
X4817922Y957478D01*
X4814620Y957580D01*
X4810455Y958392D01*
X4796282Y959358D01*
X4782108Y958392D01*
X4768240Y955649D01*
X4754778Y951077D01*
X4742078Y944829D01*
X4730292Y936904D01*
X4719624Y927557D01*
X4710277Y916889D01*
X4702352Y905103D01*
X4696104Y892403D01*
X4691532Y878941D01*
X4688789Y865073D01*
X4687824Y850900D01*
X4688789Y836726D01*
X4691532Y822858D01*
X4696104Y809396D01*
X4702352Y796696D01*
X4710277Y784910D01*
X4719624Y774242D01*
X4730292Y764895D01*
X4742078Y756970D01*
X4754778Y750722D01*
X4768240Y746150D01*
X4782108Y743407D01*
G37*
G36*
X685800Y1843024D02*
G01*
X699973Y1843989D01*
X713841Y1846732D01*
X727303Y1851304D01*
X740003Y1857552D01*
X751789Y1865477D01*
X762457Y1874824D01*
X771804Y1885492D01*
X779729Y1897278D01*
X785977Y1909978D01*
X790549Y1923440D01*
X793292Y1937308D01*
X794258Y1951482D01*
X793292Y1965655D01*
X790549Y1979574D01*
X785977Y1992985D01*
X779729Y2005685D01*
X771804Y2017471D01*
X762457Y2028139D01*
X751789Y2037537D01*
X740003Y2045411D01*
X727303Y2051659D01*
X713841Y2056231D01*
X699973Y2058974D01*
X688441Y2059736D01*
X684936Y2060651D01*
X681939Y2062683D01*
X599592Y2145030D01*
X597357Y2148332D01*
X596595Y2152243D01*
X596544Y2999841D01*
X595731Y3008680D01*
X595325Y3011119D01*
X593191Y3019755D01*
X592429Y3022092D01*
X589026Y3030321D01*
X587908Y3032506D01*
X583285Y3040126D01*
X576224Y3048965D01*
X466801Y3158439D01*
X464769Y3161436D01*
X463854Y3164941D01*
X463092Y3176473D01*
X460349Y3190341D01*
X455777Y3203803D01*
X449529Y3216503D01*
X441604Y3228289D01*
X432257Y3238957D01*
X421589Y3248304D01*
X409803Y3256229D01*
X397103Y3262477D01*
X383641Y3267049D01*
X369773Y3269792D01*
X355600Y3270758D01*
X341426Y3269792D01*
X327558Y3267049D01*
X314096Y3262477D01*
X301396Y3256229D01*
X289610Y3248304D01*
X278942Y3238957D01*
X269595Y3228289D01*
X261670Y3216503D01*
X255422Y3203803D01*
X250850Y3190341D01*
X248107Y3176473D01*
X247142Y3162300D01*
X248107Y3148126D01*
X250850Y3134258D01*
X255422Y3120796D01*
X261670Y3108096D01*
X269595Y3096310D01*
X278942Y3085642D01*
X289610Y3076295D01*
X301396Y3068370D01*
X314096Y3062122D01*
X327558Y3057550D01*
X341426Y3054807D01*
X352958Y3054045D01*
X356463Y3053130D01*
X359460Y3051098D01*
X441807Y2968752D01*
X444042Y2965450D01*
X444804Y2961538D01*
X444855Y2113940D01*
X445668Y2105101D01*
X446074Y2102662D01*
X448208Y2094026D01*
X448970Y2091689D01*
X452374Y2083460D01*
X453491Y2081275D01*
X458114Y2073656D01*
X465175Y2064816D01*
X574598Y1955342D01*
X576630Y1952345D01*
X577545Y1948840D01*
X578307Y1937308D01*
X581050Y1923440D01*
X585622Y1909978D01*
X591870Y1897278D01*
X599795Y1885492D01*
X609142Y1874824D01*
X619810Y1865477D01*
X631596Y1857552D01*
X644296Y1851304D01*
X657758Y1846732D01*
X671626Y1843989D01*
G37*
G36*
X6146800Y3307842D02*
G01*
X6160973Y3308807D01*
X6174841Y3311550D01*
X6188303Y3316122D01*
X6201003Y3322370D01*
X6212789Y3330295D01*
X6223457Y3339642D01*
X6232804Y3350310D01*
X6240729Y3362096D01*
X6246977Y3374796D01*
X6251549Y3388258D01*
X6254292Y3402126D01*
X6255258Y3416300D01*
X6254292Y3430473D01*
X6251549Y3444341D01*
X6246977Y3457803D01*
X6240729Y3470503D01*
X6232804Y3482289D01*
X6225235Y3490976D01*
X6223355Y3494074D01*
X6222695Y3497681D01*
X6222695Y3974744D01*
X6221831Y3986479D01*
X6219698Y3996283D01*
X6143650Y4262424D01*
X6141415Y4269079D01*
X6052769Y4501438D01*
X6047790Y4512056D01*
X6041440Y4521504D01*
X6035141Y4528616D01*
X5940501Y4623257D01*
X5938469Y4626254D01*
X5937554Y4629759D01*
X5936792Y4641291D01*
X5934049Y4655159D01*
X5929477Y4668621D01*
X5923229Y4681321D01*
X5915304Y4693107D01*
X5905957Y4703775D01*
X5895289Y4713122D01*
X5883503Y4721047D01*
X5870803Y4727295D01*
X5857341Y4731867D01*
X5843473Y4734610D01*
X5829300Y4735576D01*
X5815126Y4734610D01*
X5801258Y4731867D01*
X5787796Y4727295D01*
X5775096Y4721047D01*
X5763310Y4713122D01*
X5752642Y4703775D01*
X5743295Y4693107D01*
X5735370Y4681321D01*
X5729122Y4668621D01*
X5724550Y4655159D01*
X5721807Y4641291D01*
X5720842Y4627118D01*
X5721807Y4612944D01*
X5724550Y4599025D01*
X5729122Y4585614D01*
X5735370Y4572914D01*
X5743295Y4561128D01*
X5752642Y4550460D01*
X5763310Y4541062D01*
X5775096Y4533188D01*
X5787796Y4526940D01*
X5801258Y4522368D01*
X5815126Y4519625D01*
X5826658Y4518863D01*
X5830163Y4517948D01*
X5833160Y4515916D01*
X5915050Y4434027D01*
X5917336Y4430471D01*
X5998616Y4217365D01*
X6070498Y3965854D01*
X6070904Y3963060D01*
X6070904Y3497681D01*
X6070244Y3494074D01*
X6068364Y3490976D01*
X6060795Y3482289D01*
X6052870Y3470503D01*
X6046622Y3457803D01*
X6042050Y3444341D01*
X6039307Y3430473D01*
X6038342Y3416300D01*
X6039307Y3402126D01*
X6042050Y3388258D01*
X6046622Y3374796D01*
X6052870Y3362096D01*
X6060795Y3350310D01*
X6070142Y3339642D01*
X6080810Y3330295D01*
X6092596Y3322370D01*
X6105296Y3316122D01*
X6118758Y3311550D01*
X6132626Y3308807D01*
G37*
G36*
X800100Y4738624D02*
G01*
X814273Y4739589D01*
X828141Y4742332D01*
X841603Y4746904D01*
X854303Y4753152D01*
X866089Y4761077D01*
X876757Y4770424D01*
X886104Y4781092D01*
X894029Y4792878D01*
X900277Y4805578D01*
X904849Y4819040D01*
X907592Y4832908D01*
X908558Y4847082D01*
X907999Y4855413D01*
X908608Y4859680D01*
X910945Y4863287D01*
X1676857Y5629198D01*
X1679854Y5631230D01*
X1683359Y5632145D01*
X1694891Y5632907D01*
X1708759Y5635650D01*
X1722221Y5640222D01*
X1734921Y5646470D01*
X1746707Y5654395D01*
X1757375Y5663742D01*
X1766722Y5674410D01*
X1774647Y5686196D01*
X1780895Y5698896D01*
X1785467Y5712358D01*
X1788210Y5726226D01*
X1789175Y5740400D01*
X1788210Y5754573D01*
X1785467Y5768441D01*
X1780895Y5781903D01*
X1774647Y5794603D01*
X1766722Y5806389D01*
X1757375Y5817057D01*
X1746707Y5826404D01*
X1734921Y5834329D01*
X1722221Y5840577D01*
X1708759Y5845149D01*
X1694891Y5847892D01*
X1680718Y5848858D01*
X1666544Y5847892D01*
X1652625Y5845149D01*
X1639214Y5840577D01*
X1626514Y5834329D01*
X1614728Y5826404D01*
X1604060Y5817057D01*
X1594662Y5806389D01*
X1586788Y5794603D01*
X1580540Y5781903D01*
X1575968Y5768441D01*
X1573225Y5754573D01*
X1572463Y5743041D01*
X1571548Y5739536D01*
X1569516Y5736539D01*
X790143Y4957165D01*
X787755Y4955387D01*
X784961Y4954371D01*
X772058Y4951831D01*
X758596Y4947259D01*
X745896Y4941011D01*
X734110Y4933137D01*
X723442Y4923739D01*
X714095Y4913071D01*
X706170Y4901285D01*
X699922Y4888585D01*
X695350Y4875174D01*
X692607Y4861255D01*
X691642Y4847082D01*
X692607Y4832908D01*
X695350Y4819040D01*
X699922Y4805578D01*
X706170Y4792878D01*
X714095Y4781092D01*
X723442Y4770424D01*
X734110Y4761077D01*
X745896Y4753152D01*
X758596Y4746904D01*
X772058Y4742332D01*
X785926Y4739589D01*
G37*
G36*
X4589018Y5758942D02*
G01*
X4603191Y5759907D01*
X4617059Y5762650D01*
X4630521Y5767222D01*
X4643221Y5773470D01*
X4655007Y5781395D01*
X4665675Y5790742D01*
X4675022Y5801410D01*
X4682947Y5813196D01*
X4689195Y5825896D01*
X4693767Y5839358D01*
X4696510Y5853226D01*
X4697476Y5867400D01*
X4696510Y5881573D01*
X4693767Y5895441D01*
X4689195Y5908903D01*
X4682947Y5921603D01*
X4675022Y5933389D01*
X4665675Y5944057D01*
X4655007Y5953404D01*
X4643221Y5961329D01*
X4630521Y5967577D01*
X4617059Y5972149D01*
X4603191Y5974892D01*
X4589018Y5975858D01*
X4574844Y5974892D01*
X4560925Y5972149D01*
X4547514Y5967577D01*
X4534814Y5961329D01*
X4523028Y5953404D01*
X4514342Y5945835D01*
X4511243Y5943955D01*
X4507636Y5943295D01*
X3731361Y5943295D01*
X3727450Y5944057D01*
X3724148Y5946292D01*
X3489401Y6181039D01*
X3487369Y6184036D01*
X3486454Y6187541D01*
X3485692Y6199073D01*
X3482949Y6212941D01*
X3478377Y6226403D01*
X3472129Y6239103D01*
X3464204Y6250889D01*
X3454857Y6261557D01*
X3444189Y6270904D01*
X3432403Y6278829D01*
X3419703Y6285077D01*
X3406241Y6289649D01*
X3392373Y6292392D01*
X3378200Y6293358D01*
X3364026Y6292392D01*
X3350158Y6289649D01*
X3336696Y6285077D01*
X3323996Y6278829D01*
X3312210Y6270904D01*
X3301542Y6261557D01*
X3292195Y6250889D01*
X3284270Y6239103D01*
X3278022Y6226403D01*
X3273450Y6212941D01*
X3270707Y6199073D01*
X3269742Y6184900D01*
X3270707Y6170726D01*
X3273450Y6156858D01*
X3278022Y6143396D01*
X3284270Y6130696D01*
X3292195Y6118910D01*
X3301542Y6108242D01*
X3312210Y6098895D01*
X3323996Y6090970D01*
X3336696Y6084722D01*
X3350158Y6080150D01*
X3364026Y6077407D01*
X3375558Y6076645D01*
X3379063Y6075730D01*
X3382060Y6073698D01*
X3643934Y5811875D01*
X3652774Y5804814D01*
X3660394Y5800191D01*
X3662578Y5799074D01*
X3670808Y5795670D01*
X3673144Y5794908D01*
X3681780Y5792774D01*
X3684219Y5792368D01*
X3693058Y5791555D01*
X4507636Y5791504D01*
X4511243Y5790844D01*
X4514342Y5788964D01*
X4523028Y5781395D01*
X4534814Y5773470D01*
X4547514Y5767222D01*
X4560925Y5762650D01*
X4574844Y5759907D01*
G37*
G36*
X1900682Y5758942D02*
G01*
X1914855Y5759907D01*
X1928774Y5762650D01*
X1942185Y5767222D01*
X1954885Y5773470D01*
X1966671Y5781395D01*
X1975357Y5788964D01*
X1978456Y5790844D01*
X1982063Y5791504D01*
X2809341Y5791555D01*
X2818180Y5792368D01*
X2820619Y5792774D01*
X2829255Y5794908D01*
X2831592Y5795670D01*
X2839821Y5799074D01*
X2842006Y5800191D01*
X2849626Y5804814D01*
X2858465Y5811875D01*
X3120339Y6073698D01*
X3123336Y6075730D01*
X3126841Y6076645D01*
X3138373Y6077407D01*
X3152241Y6080150D01*
X3165703Y6084722D01*
X3178403Y6090970D01*
X3190189Y6098895D01*
X3200857Y6108242D01*
X3210204Y6118910D01*
X3218129Y6130696D01*
X3224377Y6143396D01*
X3228949Y6156858D01*
X3231692Y6170726D01*
X3232658Y6184900D01*
X3231692Y6199073D01*
X3228949Y6212941D01*
X3224377Y6226403D01*
X3218129Y6239103D01*
X3210204Y6250889D01*
X3200857Y6261557D01*
X3190189Y6270904D01*
X3178403Y6278829D01*
X3165703Y6285077D01*
X3152241Y6289649D01*
X3138373Y6292392D01*
X3124200Y6293358D01*
X3110026Y6292392D01*
X3096158Y6289649D01*
X3082696Y6285077D01*
X3069996Y6278829D01*
X3058210Y6270904D01*
X3047542Y6261557D01*
X3038195Y6250889D01*
X3030270Y6239103D01*
X3024022Y6226403D01*
X3019450Y6212941D01*
X3016707Y6199073D01*
X3015945Y6187541D01*
X3015030Y6184036D01*
X3012998Y6181039D01*
X2778252Y5946292D01*
X2774950Y5944057D01*
X2771038Y5943295D01*
X1982063Y5943295D01*
X1978456Y5943955D01*
X1975357Y5945835D01*
X1966671Y5953404D01*
X1954885Y5961329D01*
X1942185Y5967577D01*
X1928774Y5972149D01*
X1914855Y5974892D01*
X1900682Y5975858D01*
X1886508Y5974892D01*
X1872640Y5972149D01*
X1859178Y5967577D01*
X1846478Y5961329D01*
X1834692Y5953404D01*
X1824024Y5944057D01*
X1814677Y5933389D01*
X1806752Y5921603D01*
X1800504Y5908903D01*
X1795932Y5895441D01*
X1793189Y5881573D01*
X1792224Y5867400D01*
X1793189Y5853226D01*
X1795932Y5839358D01*
X1800504Y5825896D01*
X1806752Y5813196D01*
X1814677Y5801410D01*
X1824024Y5790742D01*
X1834692Y5781395D01*
X1846478Y5773470D01*
X1859178Y5767222D01*
X1872640Y5762650D01*
X1886508Y5759907D01*
G37*

%LPD*%
D10*
X901700Y3963670D02*
G01*
X901700Y3746500D01*
X812800Y3657600D01*
X342900Y3657600D01*
X1409700Y3173729D02*
G01*
X1409700Y3403600D01*
X1574800Y3568700D01*
X1574800Y4455413D01*
X1268729Y4761229D01*
X647700Y3963670D02*
G01*
X647700Y4140200D01*
X1727200Y5219700D01*
X3225800Y5219700D01*
X3352800Y5346700D01*
X3352800Y5448300D01*
X5613400Y3554729D02*
G01*
X5613400Y3276600D01*
X5537200Y3200400D01*
X5537200Y2679700D01*
X5613400Y2603500D01*
X5803900Y2603500D01*
X5867400Y2540000D01*
X5867400Y2260600D01*
X5575300Y1968500D01*
X5359400Y1968500D01*
X4749800Y1358900D01*
X3454400Y1358900D01*
X5829300Y1951481D02*
G01*
X5829300Y1981200D01*
X6057900Y2209800D01*
X6057900Y2387600D01*
X6146800Y2476500D01*
X6146800Y3162300D01*
X5867400Y3554704D02*
G01*
X5867400Y3358903D01*
X5867400Y3358903D02*
G01*
X5867400Y3263900D01*
X5702300Y3098800D01*
X5613400Y4344695D02*
G01*
X5613400Y3808704D01*
X5359400Y3554704D01*
X5156200Y2362200D02*
G01*
X5156200Y2413000D01*
X4927600Y2641600D01*
X4927600Y3873500D01*
X5003800Y3949700D01*
X5118100Y3949700D01*
X5359400Y4191000D01*
X5359400Y4344670D01*
X1155700Y3963695D02*
G01*
X1155700Y3746500D01*
X965200Y3556000D01*
X965200Y3237204D01*
X901700Y3173704D01*
X800100Y2213863D02*
G01*
X965200Y2378963D01*
X965200Y3173729D01*
X901700Y3173729D01*
X1155700Y2743200D02*
G01*
X1155700Y2603500D01*
X1358900Y2400300D01*
X1358900Y2146300D01*
X1524000Y1981200D01*
X1409700Y3173704D02*
G01*
X1409700Y2857500D01*
X1524000Y2743200D01*
X1155700Y3173704D02*
G01*
X1155700Y2743200D01*
X800100Y2213800D02*
G01*
X1032700Y1981200D01*
X1155700Y1981200D01*
X342900Y3657600D02*
G01*
X132461Y3657600D01*
X123835Y3666225D01*
X5359400Y3554704D02*
G01*
X5156200Y3351504D01*
X5156200Y3124200D01*
X5156200Y2362200D02*
G01*
X5181600Y2336800D01*
X5702300Y2336800D01*
X5156200Y3124200D02*
G01*
X5368086Y3124200D01*
X5384800Y3107486D01*
X355600Y3162300D02*
G01*
X520700Y2997200D01*
X520700Y2116584D01*
X685800Y1951484D01*
X812800Y1731515D02*
G01*
X812800Y1718815D01*
X1693415Y838200D01*
X1913384Y711200D02*
G01*
X2120900Y711200D01*
X2362200Y469900D01*
X3048000Y469900D01*
X3124200Y393700D01*
X342900Y3657600D02*
G01*
X342900Y3429000D01*
X355600Y3416300D01*
X5702300Y4847084D02*
G01*
X5702300Y4933221D01*
X5845291Y5076212D01*
X4796284Y850900D02*
G01*
X4821684Y850900D01*
X5702300Y1731515D01*
X5829300Y4627118D02*
G01*
X5981700Y4474718D01*
X6070600Y4241800D01*
X6146800Y3975100D01*
X6146800Y3416300D01*
X3352800Y5448300D02*
G01*
X4457700Y5448300D01*
X5105400Y4800600D01*
X5105400Y4540003D01*
X5105400Y4540003D02*
G01*
X5105400Y4344695D01*
X3378200Y6184900D02*
G01*
X3695700Y5867400D01*
X4589015Y5867400D01*
X4808984Y5740400D02*
G01*
X4999078Y5740400D01*
X5099032Y5840354D01*
X1900684Y5867400D02*
G01*
X2806700Y5867400D01*
X3124200Y6184900D01*
X800100Y4847084D02*
G01*
X800100Y4859784D01*
X1680715Y5740400D01*
X3454400Y1358900D02*
G01*
X3454400Y939800D01*
G75*
G01
X6401206Y3289275D02*
G03X6401206Y3289275I-3150006J0D01*
D11*
G01*
X3098800Y5448300D03*
D12*
G01*
X3352800Y5448300D03*
D11*
G01*
X3200400Y1358900D03*
D12*
G01*
X3454400Y1358900D03*
D13*
G01*
X355600Y3416300D03*
G01*
X355600Y3162300D03*
G01*
X685800Y1951481D03*
G01*
X812800Y1731518D03*
G01*
X1693418Y838200D03*
G01*
X1913381Y711200D03*
G01*
X3124200Y393700D03*
G01*
X3378200Y393700D03*
G01*
X4796281Y850900D03*
G01*
X4576318Y723900D03*
G01*
X5829300Y1951481D03*
G01*
X5702300Y1731518D03*
G01*
X6146800Y3416300D03*
G01*
X6146800Y3162300D03*
G01*
X5702300Y4847081D03*
G01*
X5829300Y4627118D03*
G01*
X800100Y4847081D03*
G01*
X673100Y4627118D03*
G01*
X1900681Y5867400D03*
G01*
X1680718Y5740400D03*
G01*
X3378200Y6184900D03*
G01*
X3124200Y6184900D03*
G01*
X4808981Y5740400D03*
G01*
X4589018Y5867400D03*
D14*
G01*
X1524000Y1981200D03*
G01*
X1524000Y2743200D03*
G01*
X1155700Y2743200D03*
G01*
X1155700Y1981200D03*
G01*
X5156200Y2362200D03*
G01*
X5156200Y3124200D03*
G01*
X5702300Y2336800D03*
G01*
X5702300Y3098800D03*
D15*
G01*
X1409700Y3173704D03*
G01*
X1155700Y3173704D03*
G01*
X901700Y3173704D03*
G01*
X647700Y3173704D03*
G01*
X647700Y3963695D03*
G01*
X901700Y3963695D03*
G01*
X1155700Y3963695D03*
D16*
G01*
X1409700Y3963695D03*
D15*
G01*
X5105400Y4344695D03*
G01*
X5359400Y4344695D03*
G01*
X5613400Y4344695D03*
G01*
X5867400Y4344695D03*
G01*
X5867400Y3554704D03*
G01*
X5613400Y3554704D03*
G01*
X5359400Y3554704D03*
D16*
G01*
X5105400Y3554704D03*
D12*
G01*
X800100Y2713786D03*
G01*
X800100Y2213787D03*
G01*
X5384800Y2607487D03*
G01*
X5384800Y3107486D03*
D11*
G01*
X3200400Y939800D03*
D12*
G01*
X3454400Y939800D03*
G01*
X2590800Y5448300D03*
G01*
X2590800Y5029200D03*
D17*
G01*
X5105400Y4540003D03*
G01*
X5867400Y3358903D03*
M02*
