M48
METRIC,LZ,000.000
;FILE_FORMAT=3:3
;TYPE=PLATED
;Layer: PTH_Through
;EasyEDA v6.5.39, 2025-06-10 14:50:35
;eefc3f0089224e03be8a9c8d5fdaf5f0,953214928e7c43af8b9c7e5a0e4489c6,10
;Gerber Generator version 0.2
;Holesize 1 = 0.712 mm
T01C0.712
;Holesize 2 = 0.889 mm
T02C0.889
;Holesize 3 = 0.900 mm
T03C0.900
;Holesize 4 = 0.901 mm
T04C0.901
;Holesize 5 = 0.915 mm
T05C0.915
;Holesize 6 = 1.000 mm
T06C1.000
%
G05
G90
T01
X009469Y043746
X007803Y045662
X030861Y009017
X033401Y009017
X084201Y020193
X081661Y020193
X027559Y085725
X025019Y085725
X010795Y075438
X013335Y075438
X012403Y032587
X009949Y031929
X019558Y017653
X019558Y015113
X048260Y005461
X050800Y005461
X081788Y032512
X084328Y032512
X084963Y050165
X087503Y050165
X075184Y078486
X075184Y081026
X082296Y067310
X084836Y067310
X065278Y009525
X067818Y009525
X059173Y085843
X060969Y087639
X044831Y085725
X044831Y088265
X010287Y061976
X007747Y061976
T02
X075311Y042418
X075311Y044958
X075311Y047498
X075311Y050038
T03
X007493Y042799
X-000127Y042799
X035814Y009017
X035814Y001397
X080645Y022987
X088265Y022987
X021818Y082879
X024918Y089841
X015113Y073279
X007493Y073279
X010909Y029012
X006871Y022550
X021717Y015367
X021717Y007747
X052832Y007874
X052832Y000254
X085852Y034925
X093472Y034925
X087376Y053213
X094996Y053213
X072644Y080010
X072644Y087630
X081661Y070358
X089281Y070358
X070231Y010922
X077851Y010922
X057497Y086546
X059851Y093794
X041783Y087249
X041783Y094869
X009017Y059817
X001397Y059817
T04
X065151Y078486
X062611Y063246
X057530Y063246
X052450Y063246
X047370Y063246
X042290Y063246
X037210Y063246
X032130Y063246
X029591Y078486
X034672Y078486
X039752Y078486
X044832Y078486
X049912Y078486
X054992Y078486
X060071Y078486
X062611Y078486
X057531Y078486
X052451Y078486
X047371Y078486
X042291Y078486
X037211Y078486
X032131Y078486
X029591Y063246
X034671Y063246
X039751Y063246
X044831Y063246
X049911Y063246
X054991Y063246
X060071Y063246
X065151Y063246
T05
X063881Y030734
X063881Y028194
X063881Y025654
X063881Y023114
X063881Y020574
X063881Y018034
X063881Y015494
X063881Y012954
X031623Y012954
X031623Y015494
X031623Y018034
X031623Y020574
X031623Y023114
X031623Y025654
X031623Y028194
X031623Y030734
X075311Y052070
X066421Y060452
X052149Y061008
X073184Y049625
X053721Y053848
X053721Y031750
X037211Y061214
X037211Y054991
X025400Y040005
X052324Y066675
X025400Y068961
X034925Y020574
X036830Y018034
X048697Y061031
X073208Y046172
X082423Y058039
X085217Y055499
T06
X050038Y092583
X047498Y092583
X044958Y092583
X032573Y090126
X030226Y089154
X027879Y088182
X017544Y081171
X015748Y079375
X013952Y077579
X006941Y067117
X005969Y064770
X004997Y062423
X002540Y050038
X002540Y047498
X002540Y044958
X004997Y032700
X005969Y030353
X006941Y028006
X013825Y017544
X015621Y015748
X017417Y013952
X027879Y006941
X030226Y005969
X032573Y004997
X044958Y002540
X047498Y002540
X050038Y002540
X062423Y004997
X064770Y005969
X067117Y006941
X077579Y013952
X079375Y015748
X081171Y017544
X088055Y028006
X089027Y030353
X089999Y032700
X092456Y044958
X092456Y047498
X092456Y050038
X090126Y062423
X089154Y064770
X088182Y067117
X081171Y077579
X079375Y079375
X077579Y081171
X067117Y088182
X064770Y089154
X062423Y090126
X043815Y053848
X043815Y051308
X043815Y048768
X043815Y046228
X043815Y043688
X043815Y041148
X043815Y038608
X043815Y036068
X051435Y036068
X051435Y038608
X051435Y041148
X051435Y043688
X051435Y046228
X051435Y048768
X051435Y051308
X051435Y053848
X043942Y031750
X043942Y029210
X043942Y026670
X043942Y024130
X043942Y021590
X043942Y019050
X043942Y016510
X043942Y013970
X051562Y013970
X051562Y016510
X051562Y019050
X051562Y021590
X051562Y024130
X051562Y026670
X051562Y029210
X051562Y031750
M30
