M48
METRIC,LZ,000.000
;FILE_FORMAT=3:3
;TYPE=NON_PLATED
;Layer: NPTH_Through
;EasyEDA v6.5.39, 2025-03-02 11:35:30
;2ef312028e1c4a72bddf737b2bd369bb,953214928e7c43af8b9c7e5a0e4489c6,10
;Gerber Generator version 0.2
;Holesize 1 = 1.000 mm
T01C1.000
;Holesize 2 = 2.501 mm
T02C2.501
;Holesize 3 = 3.000 mm
T03C3.000
%
G05
G90
T01
X017836Y051795
X134183Y094636
X102084Y129513
X054589Y131389
X019712Y099163
X050062Y016918
X097430Y015042
X132307Y047268
T02
X015205Y045997
X013751Y049507
X136814Y100434
X138268Y096924
X099845Y135474
X103355Y134020
X048791Y134020
X052301Y135474
X013751Y096924
X015205Y100434
X052301Y010957
X048791Y012411
X103228Y012411
X099718Y010957
X138268Y049507
X136814Y045997
T03
X056007Y053213
X096007Y053213
X076007Y013213
X136007Y073213
X016007Y073213
X056007Y093212
X096007Y093212
M30
