M48
METRIC,LZ,000.000
;FILE_FORMAT=3:3
;TYPE=PLATED
;Layer: PTH_Through
;EasyEDA v6.5.39, 2025-03-02 11:35:30
;2ef312028e1c4a72bddf737b2bd369bb,953214928e7c43af8b9c7e5a0e4489c6,10
;Gerber Generator version 0.2
;Holesize 1 = 0.889 mm
T01C0.889
;Holesize 2 = 0.900 mm
T02C0.900
;Holesize 3 = 0.915 mm
T03C0.915
;Holesize 4 = 0.961 mm
T04C0.961
;Holesize 5 = 1.000 mm
T05C1.000
;Holesize 6 = 2.000 mm
T06C2.000
%
G05
G90
T01
X062484Y053607
X065024Y053607
X081534Y093091
X078994Y093091
X076454Y093091
X073914Y093091
X071374Y093091
X082216Y042012
X079676Y042012
T02
X039497Y073279
X029337Y073279
X084455Y122047
X084455Y111887
X122682Y080772
X112522Y080772
X122809Y065659
X112649Y065659
X083058Y023876
X083058Y034036
X068072Y023876
X068072Y034036
X029337Y065405
X039497Y065405
X029337Y081153
X039497Y081153
X068199Y122047
X068199Y111887
X075819Y034036
X075819Y023876
X112649Y073152
X122809Y073152
X076327Y111887
X076327Y122047
T03
X012423Y045526
X011451Y047873
X017505Y047631
X016533Y049978
X139596Y100905
X140568Y098558
X134514Y098800
X135486Y096453
X101479Y137774
X103826Y136802
X099374Y132692
X101721Y131720
X048320Y136802
X050667Y137774
X050425Y131720
X052772Y132692
X011451Y098558
X012423Y100905
X016533Y096453
X017505Y098800
X050667Y008657
X048320Y009629
X052772Y013739
X050425Y014711
X103699Y009629
X101352Y008657
X101594Y014711
X099247Y013739
X140568Y047873
X139596Y045526
X135486Y049978
X134514Y047631
X077136Y042012
X089807Y060942
X086215Y064534
X098189Y069324
X094597Y072916
T04
X084455Y108204
X062484Y056261
X062484Y058293
X108331Y065659
T05
X065278Y063754
X065278Y066294
X065278Y068834
X065278Y071374
X065278Y073914
X065278Y076454
X065278Y078994
X065278Y081534
X057658Y081534
X057658Y078994
X057658Y076454
X057658Y073914
X057658Y071374
X057658Y068834
X057658Y066294
X057658Y063754
T06
X082469Y053929
X079075Y057323
X102189Y080437
X105583Y077043
X084676Y046355
X079676Y046355
X074676Y046355
M30
