G04 Layer: BoardOutlineLayer*
G04 EasyEDA v6.5.39, 2025-03-02 11:35:30*
G04 2ef312028e1c4a72bddf737b2bd369bb,953214928e7c43af8b9c7e5a0e4489c6,10*
G04 Gerber Generator version 0.2*
G04 Scale: 100 percent, Rotated: No, Reflected: No *
G04 Dimensions in millimeters *
G04 leading zeros omitted , absolute positions ,4 integer and 5 decimal *
%FSLAX45Y45*%
%MOMM*%

%ADD10C,0.2540*%
D10*
X5950976Y10243766D02*
G01*
X4678187Y8970977D01*
X9250377Y4398787D02*
G01*
X10523166Y5671576D01*
X3133336Y13202828D02*
G01*
X5950976Y10385188D01*
X4536765Y8970977D02*
G01*
X1719125Y11788617D01*
X9100672Y672820D02*
G01*
X9100672Y96334D01*
X12068017Y1439725D02*
G01*
X9250377Y4257365D01*
X13482228Y11788617D02*
G01*
X10664588Y8970977D01*
X9250377Y10385188D02*
G01*
X12068017Y13202828D01*
X4678187Y5671576D02*
G01*
X5950976Y4398787D01*
X10664588Y5671576D02*
G01*
X13482228Y2853936D01*
X5950976Y4257365D02*
G01*
X3133336Y1439725D01*
X1719125Y2853936D02*
G01*
X4536765Y5671576D01*
X10523166Y8970977D02*
G01*
X9250377Y10243766D01*
X9825215Y14483763D02*
G01*
X5376138Y14483763D01*
X6100678Y96334D02*
G01*
X6100678Y672820D01*
X6400678Y972820D02*
G01*
X8800673Y972820D01*
G75*
G01*
X9250378Y10385189D02*
G03*
X9250378Y10243767I70710J-70711D01*
G75*
G01*
X12056722Y13353974D02*
G03*
X9825215Y14483763I-4456047J-6032696D01*
G75*
G01*
X12056722Y1288578D02*
G03*
X12068018Y1439725I-59414J80436D01*
G75*
G01*
X9222296Y-1300D02*
G03*
X12056722Y1288578I-1621617J7322577D01*
G75*
G01*
X3144632Y1288578D02*
G03*
X5979058Y-1300I4456042J6032699D01*
G75*
G01*
X10523167Y8970978D02*
G03*
X10664589Y8970978I70711J70710D01*
G75*
G01*
X4678187Y5671576D02*
G03*
X4536765Y5671576I-70711J-70710D01*
G75*
G01*
X13633374Y2865232D02*
G03*
X13633374Y11777322I-6032697J4456045D01*
G75*
G01*
X3144632Y13353974D02*
G03*
X3133336Y13202829I59415J-80435D01*
G75*
G01*
X5950976Y4257365D02*
G03*
X5950976Y4398787I-70710J70711D01*
G75*
G01*
X9100673Y96335D02*
G03*
X9222296Y-1300I99999J-1D01*
G75*
G01*
X9250378Y4398787D02*
G03*
X9250378Y4257365I70710J-70711D01*
G75*
G01*
X5979058Y-1300D02*
G03*
X6100679Y96335I21621J97634D01*
G75*
G01*
X4536765Y8970978D02*
G03*
X4678187Y8970978I70711J70710D01*
G75*
G01*
X6400678Y972820D02*
G03*
X6100679Y672821I0J-299999D01*
G75*
G01*
X13633374Y11777322D02*
G03*
X13482229Y11788618I-80435J-59415D01*
G75*
G01*
X1567978Y11777322D02*
G03*
X1567978Y2865232I6032697J-4456045D01*
G75*
G01*
X1567978Y2865232D02*
G03*
X1719125Y2853936I80436J59414D01*
G75*
G01*
X9100673Y672821D02*
G03*
X8800673Y972820I-300000J0D01*
G75*
G01*
X10664589Y5671576D02*
G03*
X10523167Y5671576I-70711J-70710D01*
G75*
G01*
X12068018Y13202829D02*
G03*
X12056722Y13353974I-70711J70710D01*
G75*
G01*
X5950976Y10243767D02*
G03*
X5950976Y10385189I-70710J70711D01*
G75*
G01*
X5376139Y14483763D02*
G03*
X3144632Y13353974I2224540J-7162485D01*
G75*
G01*
X1719125Y11788618D02*
G03*
X1567978Y11777322I-70711J-70710D01*
G75*
G01*
X13482229Y2853936D02*
G03*
X13633374Y2865232I70710J70711D01*
G75*
G01*
X3133336Y1439725D02*
G03*
X3144632Y1288578I70710J-70711D01*

%LPD*%
M02*
