G04 Layer: TopLayer*
G04 EasyEDA v6.5.39, 2025-03-28 13:23:23*
G04 2f9429476ae1470bb185fcf52c2c0986,953214928e7c43af8b9c7e5a0e4489c6,10*
G04 Gerber Generator version 0.2*
G04 Scale: 100 percent, Rotated: No, Reflected: No *
G04 Dimensions in millimeters *
G04 leading zeros omitted , absolute positions ,4 integer and 5 decimal *
%FSLAX45Y45*%
%MOMM*%

%ADD10C,1.0000*%
%ADD11R,1.7000X1.5748*%
%ADD12C,1.7000*%
%ADD13C,1.6510*%

%LPD*%
G36*
X2875686Y56489D02*
G01*
X2802331Y56997D01*
X2729026Y59486D01*
X2655773Y64058D01*
X2582722Y70561D01*
X2509824Y79095D01*
X2437231Y89662D01*
X2364943Y102158D01*
X2293010Y116687D01*
X2221534Y133146D01*
X2150516Y151587D01*
X2080006Y171958D01*
X2010105Y194208D01*
X1940864Y218440D01*
X1872284Y244500D01*
X1804466Y272491D01*
X1737410Y302310D01*
X1671218Y333959D01*
X1605940Y367385D01*
X1541576Y402590D01*
X1478229Y439572D01*
X1415897Y478282D01*
X1354632Y518668D01*
X1294536Y560730D01*
X1235557Y604469D01*
X1177848Y649732D01*
X1121410Y696620D01*
X1066292Y744982D01*
X1012494Y794867D01*
X960069Y846226D01*
X909066Y899007D01*
X859586Y953160D01*
X811580Y1008634D01*
X765098Y1065377D01*
X720191Y1123442D01*
X676910Y1182674D01*
X635254Y1243076D01*
X595325Y1304594D01*
X557022Y1367180D01*
X520496Y1430832D01*
X485749Y1495399D01*
X452729Y1560931D01*
X421538Y1627378D01*
X392226Y1694586D01*
X364744Y1762607D01*
X339090Y1831390D01*
X315366Y1900783D01*
X293573Y1970836D01*
X273710Y2041499D01*
X255778Y2112619D01*
X239826Y2184247D01*
X225806Y2256231D01*
X213766Y2328621D01*
X203758Y2401316D01*
X195732Y2474214D01*
X189687Y2547366D01*
X185674Y2620619D01*
X183692Y2693974D01*
X183692Y2767330D01*
X185674Y2840685D01*
X189738Y2913938D01*
X195732Y2987040D01*
X203809Y3059988D01*
X213817Y3132632D01*
X225856Y3205022D01*
X239877Y3277057D01*
X255828Y3348634D01*
X273761Y3419805D01*
X293674Y3490417D01*
X315468Y3560470D01*
X339191Y3629863D01*
X364845Y3698646D01*
X392328Y3766667D01*
X421690Y3833876D01*
X452882Y3900322D01*
X485851Y3965854D01*
X520649Y4030421D01*
X557174Y4094022D01*
X595477Y4156659D01*
X635457Y4218178D01*
X677062Y4278579D01*
X720394Y4337812D01*
X765251Y4395825D01*
X811733Y4452569D01*
X859739Y4508093D01*
X909269Y4562195D01*
X960272Y4614976D01*
X1012698Y4666284D01*
X1066495Y4716170D01*
X1121613Y4764582D01*
X1178102Y4811420D01*
X1235811Y4856734D01*
X1294739Y4900422D01*
X1354886Y4942484D01*
X1416100Y4982870D01*
X1478432Y5021529D01*
X1541830Y5058511D01*
X1606194Y5093716D01*
X1671472Y5127193D01*
X1737664Y5158790D01*
X1804720Y5188610D01*
X1872538Y5216601D01*
X1941118Y5242661D01*
X2010410Y5266842D01*
X2080310Y5289143D01*
X2150770Y5309514D01*
X2221788Y5327904D01*
X2293315Y5344363D01*
X2365197Y5358892D01*
X2437485Y5371388D01*
X2510129Y5381904D01*
X2582976Y5390438D01*
X2656078Y5396992D01*
X2729280Y5401513D01*
X2802636Y5404002D01*
X2875991Y5404510D01*
X2949346Y5402986D01*
X3022600Y5399481D01*
X3095752Y5393944D01*
X3168751Y5386425D01*
X3241497Y5376875D01*
X3313937Y5365343D01*
X3386074Y5351830D01*
X3457803Y5336336D01*
X3529025Y5318861D01*
X3599789Y5299506D01*
X3669995Y5278170D01*
X3739591Y5254904D01*
X3808526Y5229758D01*
X3876700Y5202732D01*
X3944162Y5173827D01*
X4010761Y5143093D01*
X4076547Y5110581D01*
X4141368Y5076240D01*
X4205224Y5040122D01*
X4268114Y5002276D01*
X4329887Y4962702D01*
X4390593Y4921504D01*
X4450080Y4878578D01*
X4508449Y4834077D01*
X4565497Y4788001D01*
X4621326Y4740402D01*
X4675784Y4691227D01*
X4728921Y4640630D01*
X4780584Y4588560D01*
X4830876Y4535119D01*
X4879644Y4480306D01*
X4926838Y4424172D01*
X4972558Y4366768D01*
X5016652Y4308094D01*
X5059121Y4248251D01*
X5099913Y4187291D01*
X5139029Y4125214D01*
X5176469Y4062120D01*
X5212080Y3998010D01*
X5246014Y3932936D01*
X5278069Y3866946D01*
X5308346Y3800094D01*
X5336743Y3732479D01*
X5363311Y3664102D01*
X5388000Y3594963D01*
X5410758Y3525265D01*
X5431586Y3454908D01*
X5450484Y3383991D01*
X5467451Y3312617D01*
X5482437Y3240786D01*
X5495442Y3168599D01*
X5506466Y3096056D01*
X5515508Y3023260D01*
X5522518Y2950210D01*
X5527548Y2877007D01*
X5530596Y2803702D01*
X5531561Y2730347D01*
X5530596Y2656992D01*
X5527548Y2583688D01*
X5522518Y2510485D01*
X5515457Y2437485D01*
X5506415Y2364638D01*
X5495391Y2292146D01*
X5482386Y2219909D01*
X5467400Y2148128D01*
X5450433Y2076704D01*
X5431536Y2005838D01*
X5410657Y1935480D01*
X5387898Y1865731D01*
X5363210Y1796643D01*
X5336641Y1728266D01*
X5308244Y1660652D01*
X5277967Y1593799D01*
X5245862Y1527810D01*
X5211978Y1462735D01*
X5176316Y1398625D01*
X5138877Y1335532D01*
X5099761Y1273454D01*
X5058968Y1212494D01*
X5016500Y1152652D01*
X4972354Y1094028D01*
X4926685Y1036624D01*
X4879441Y980490D01*
X4830673Y925677D01*
X4780432Y872236D01*
X4728718Y820166D01*
X4675581Y769569D01*
X4621123Y720445D01*
X4565294Y672795D01*
X4508195Y626719D01*
X4449876Y582218D01*
X4390339Y539343D01*
X4329633Y498144D01*
X4267860Y458571D01*
X4205020Y420725D01*
X4141114Y384657D01*
X4076293Y350316D01*
X4010507Y317754D01*
X3943908Y287070D01*
X3876446Y258165D01*
X3808272Y231140D01*
X3739337Y205994D01*
X3669741Y182778D01*
X3599535Y161442D01*
X3528771Y142036D01*
X3457498Y124612D01*
X3385820Y109118D01*
X3313684Y95605D01*
X3241243Y84074D01*
X3168497Y74574D01*
X3095498Y67005D01*
X3022346Y61518D01*
X2949041Y57962D01*
G37*

%LPC*%
G36*
X2730500Y145542D02*
G01*
X2744673Y146507D01*
X2758541Y149250D01*
X2772003Y153822D01*
X2784703Y160070D01*
X2796489Y167995D01*
X2807157Y177342D01*
X2816504Y188010D01*
X2824429Y199796D01*
X2830677Y212496D01*
X2835249Y225958D01*
X2837992Y239826D01*
X2838958Y254000D01*
X2837992Y268173D01*
X2835249Y282041D01*
X2830677Y295503D01*
X2824429Y308203D01*
X2816504Y319989D01*
X2808935Y328676D01*
X2807055Y331774D01*
X2806395Y335381D01*
X2806395Y804214D01*
X2807157Y808024D01*
X2809290Y811276D01*
X2814929Y817118D01*
X2823413Y828497D01*
X2830423Y840892D01*
X2835757Y854049D01*
X2839364Y867816D01*
X2841142Y881887D01*
X2841142Y896112D01*
X2839364Y910183D01*
X2835757Y923950D01*
X2830423Y937107D01*
X2823413Y949502D01*
X2814929Y960882D01*
X2805074Y971092D01*
X2793949Y979932D01*
X2781808Y987298D01*
X2768803Y993038D01*
X2755188Y997102D01*
X2741168Y999388D01*
X2726944Y999845D01*
X2712821Y998474D01*
X2698953Y995324D01*
X2685592Y990396D01*
X2672994Y983843D01*
X2661361Y975715D01*
X2651404Y966622D01*
X2648204Y964692D01*
X2644546Y963980D01*
X1276096Y963980D01*
X1272489Y964641D01*
X1269390Y966520D01*
X1260703Y974140D01*
X1248918Y982014D01*
X1236218Y988263D01*
X1222756Y992835D01*
X1208836Y995629D01*
X1194714Y996543D01*
X1180541Y995629D01*
X1166622Y992835D01*
X1153210Y988263D01*
X1140460Y982014D01*
X1128674Y974140D01*
X1118006Y964793D01*
X1108659Y954125D01*
X1100785Y942340D01*
X1094536Y929589D01*
X1089964Y916178D01*
X1087170Y902258D01*
X1086256Y888085D01*
X1087170Y873963D01*
X1089964Y860044D01*
X1094536Y846582D01*
X1100785Y833882D01*
X1108659Y822096D01*
X1118006Y811428D01*
X1128674Y802081D01*
X1140460Y794207D01*
X1153210Y787908D01*
X1166622Y783336D01*
X1180541Y780592D01*
X1194714Y779678D01*
X1208836Y780592D01*
X1222756Y783336D01*
X1236218Y787908D01*
X1248918Y794207D01*
X1260703Y802081D01*
X1269390Y809650D01*
X1272489Y811530D01*
X1276045Y812190D01*
X2644444Y812190D01*
X2648305Y811428D01*
X2651607Y809193D01*
X2653792Y805891D01*
X2654604Y802030D01*
X2654604Y335381D01*
X2653944Y331774D01*
X2652064Y328676D01*
X2644495Y319989D01*
X2636570Y308203D01*
X2630322Y295503D01*
X2625750Y282041D01*
X2623007Y268173D01*
X2622042Y254000D01*
X2623007Y239826D01*
X2625750Y225958D01*
X2630322Y212496D01*
X2636570Y199796D01*
X2644495Y188010D01*
X2653842Y177342D01*
X2664510Y167995D01*
X2676296Y160070D01*
X2688996Y153822D01*
X2702458Y149250D01*
X2716326Y146507D01*
G37*
G36*
X2984500Y145542D02*
G01*
X2998673Y146507D01*
X3012541Y149250D01*
X3026003Y153822D01*
X3038703Y160070D01*
X3050489Y167995D01*
X3061157Y177342D01*
X3070504Y188010D01*
X3078429Y199796D01*
X3084677Y212496D01*
X3089249Y225958D01*
X3091992Y239826D01*
X3092754Y251358D01*
X3093669Y254863D01*
X3095701Y257860D01*
X3659733Y821893D01*
X3663035Y824128D01*
X3666947Y824890D01*
X4438954Y824890D01*
X4442510Y824230D01*
X4445609Y822350D01*
X4454296Y814781D01*
X4466082Y806907D01*
X4478782Y800608D01*
X4492244Y796036D01*
X4506163Y793292D01*
X4520285Y792378D01*
X4534458Y793292D01*
X4548378Y796036D01*
X4561789Y800608D01*
X4574540Y806907D01*
X4586325Y814781D01*
X4596993Y824128D01*
X4606340Y834796D01*
X4614214Y846582D01*
X4620463Y859282D01*
X4625035Y872744D01*
X4627829Y886663D01*
X4628743Y900785D01*
X4627829Y914958D01*
X4625035Y928878D01*
X4620463Y942289D01*
X4614214Y955040D01*
X4606340Y966825D01*
X4596993Y977493D01*
X4586325Y986840D01*
X4574540Y994714D01*
X4561789Y1000963D01*
X4548378Y1005535D01*
X4534458Y1008329D01*
X4520285Y1009243D01*
X4506163Y1008329D01*
X4492244Y1005535D01*
X4478782Y1000963D01*
X4466082Y994714D01*
X4454296Y986840D01*
X4445609Y979220D01*
X4442510Y977341D01*
X4438904Y976680D01*
X3628644Y976630D01*
X3619804Y975817D01*
X3617366Y975410D01*
X3608730Y973277D01*
X3606393Y972515D01*
X3598164Y969111D01*
X3595979Y967994D01*
X3588359Y963371D01*
X3579520Y956310D01*
X2988360Y365201D01*
X2985363Y363169D01*
X2981858Y362254D01*
X2970326Y361492D01*
X2956458Y358749D01*
X2942996Y354177D01*
X2930296Y347929D01*
X2918510Y340004D01*
X2907842Y330657D01*
X2898495Y319989D01*
X2890570Y308203D01*
X2884322Y295503D01*
X2879750Y282041D01*
X2877007Y268173D01*
X2876042Y254000D01*
X2877007Y239826D01*
X2879750Y225958D01*
X2884322Y212496D01*
X2890570Y199796D01*
X2898495Y188010D01*
X2907842Y177342D01*
X2918510Y167995D01*
X2930296Y160070D01*
X2942996Y153822D01*
X2956458Y149250D01*
X2970326Y146507D01*
G37*
G36*
X1015085Y959256D02*
G01*
X1029258Y960170D01*
X1043178Y962964D01*
X1056589Y967536D01*
X1069340Y973785D01*
X1081125Y981659D01*
X1091793Y991006D01*
X1101140Y1001674D01*
X1109014Y1013460D01*
X1115263Y1026210D01*
X1119835Y1039621D01*
X1122629Y1053541D01*
X1123543Y1067714D01*
X1122629Y1081836D01*
X1119835Y1095756D01*
X1115263Y1109218D01*
X1109014Y1121918D01*
X1101140Y1133703D01*
X1093520Y1142390D01*
X1091692Y1145489D01*
X1091031Y1149045D01*
X1090980Y1972056D01*
X1090117Y1980895D01*
X1089710Y1983333D01*
X1087577Y1991969D01*
X1086815Y1994255D01*
X1083411Y2002485D01*
X1082294Y2004669D01*
X1077722Y2012289D01*
X1076299Y2014321D01*
X1070610Y2021179D01*
X492201Y2599639D01*
X490169Y2602636D01*
X489254Y2606141D01*
X488492Y2617673D01*
X485749Y2631541D01*
X481177Y2645003D01*
X474929Y2657703D01*
X467004Y2669489D01*
X457657Y2680157D01*
X446989Y2689504D01*
X435203Y2697429D01*
X422503Y2703677D01*
X409041Y2708249D01*
X395173Y2710992D01*
X381000Y2711958D01*
X366826Y2710992D01*
X352958Y2708249D01*
X339496Y2703677D01*
X326796Y2697429D01*
X315010Y2689504D01*
X304342Y2680157D01*
X294995Y2669489D01*
X287070Y2657703D01*
X280822Y2645003D01*
X276250Y2631541D01*
X273507Y2617673D01*
X272542Y2603500D01*
X273507Y2589326D01*
X276250Y2575458D01*
X280822Y2561996D01*
X287070Y2549296D01*
X294995Y2537510D01*
X304342Y2526842D01*
X315010Y2517495D01*
X326796Y2509570D01*
X339496Y2503322D01*
X352958Y2498750D01*
X366826Y2496007D01*
X378358Y2495245D01*
X381863Y2494330D01*
X384860Y2492298D01*
X936244Y1940915D01*
X938428Y1937613D01*
X939190Y1933752D01*
X939190Y1149096D01*
X938530Y1145489D01*
X936701Y1142390D01*
X929081Y1133703D01*
X921207Y1121918D01*
X914908Y1109218D01*
X910336Y1095756D01*
X907592Y1081836D01*
X906678Y1067714D01*
X907592Y1053541D01*
X910336Y1039621D01*
X914908Y1026210D01*
X921207Y1013460D01*
X929081Y1001674D01*
X938428Y991006D01*
X949096Y981659D01*
X960882Y973785D01*
X973582Y967536D01*
X987044Y962964D01*
X1000963Y960170D01*
G37*
G36*
X4699914Y971956D02*
G01*
X4714036Y972870D01*
X4727956Y975664D01*
X4741418Y980236D01*
X4754118Y986485D01*
X4765903Y994359D01*
X4776571Y1003706D01*
X4785918Y1014374D01*
X4793792Y1026160D01*
X4800092Y1038910D01*
X4804664Y1052322D01*
X4807407Y1066241D01*
X4808321Y1080414D01*
X4807407Y1094536D01*
X4804664Y1108456D01*
X4800092Y1121918D01*
X4793792Y1134618D01*
X4785918Y1146403D01*
X4778349Y1155090D01*
X4776470Y1158189D01*
X4775809Y1161745D01*
X4775809Y1933752D01*
X4776571Y1937664D01*
X4778806Y1940966D01*
X5330139Y2492298D01*
X5333136Y2494330D01*
X5336641Y2495245D01*
X5348173Y2496007D01*
X5362041Y2498750D01*
X5375503Y2503322D01*
X5388203Y2509570D01*
X5399989Y2517495D01*
X5410657Y2526842D01*
X5420004Y2537510D01*
X5427929Y2549296D01*
X5434177Y2561996D01*
X5438749Y2575458D01*
X5441492Y2589326D01*
X5442458Y2603500D01*
X5441492Y2617673D01*
X5438749Y2631541D01*
X5434177Y2645003D01*
X5427929Y2657703D01*
X5420004Y2669489D01*
X5410657Y2680157D01*
X5399989Y2689504D01*
X5388203Y2697429D01*
X5375503Y2703677D01*
X5362041Y2708249D01*
X5348173Y2710992D01*
X5334000Y2711958D01*
X5319826Y2710992D01*
X5305958Y2708249D01*
X5292496Y2703677D01*
X5279796Y2697429D01*
X5268010Y2689504D01*
X5257342Y2680157D01*
X5247995Y2669489D01*
X5240070Y2657703D01*
X5233822Y2645003D01*
X5229250Y2631541D01*
X5226507Y2617673D01*
X5225745Y2606141D01*
X5224830Y2602636D01*
X5222798Y2599639D01*
X4644390Y2021179D01*
X4637328Y2012340D01*
X4632706Y2004720D01*
X4631588Y2002536D01*
X4628184Y1994306D01*
X4627422Y1991969D01*
X4625289Y1983333D01*
X4624882Y1980895D01*
X4624070Y1972056D01*
X4624019Y1161796D01*
X4623358Y1158189D01*
X4621479Y1155090D01*
X4613859Y1146403D01*
X4605985Y1134618D01*
X4599736Y1121918D01*
X4595164Y1108456D01*
X4592370Y1094536D01*
X4591456Y1080414D01*
X4592370Y1066241D01*
X4595164Y1052322D01*
X4599736Y1038910D01*
X4605985Y1026160D01*
X4613859Y1014374D01*
X4623206Y1003706D01*
X4633874Y994359D01*
X4645660Y986485D01*
X4658410Y980236D01*
X4671822Y975664D01*
X4685741Y972870D01*
G37*
G36*
X1258112Y1104595D02*
G01*
X4456887Y1104595D01*
X4463389Y1105408D01*
X4468926Y1107490D01*
X4474057Y1111046D01*
X4477105Y1114044D01*
X4479747Y1117650D01*
X4482236Y1123188D01*
X4483404Y1130655D01*
X4483404Y4329887D01*
X4482592Y4336389D01*
X4480509Y4341926D01*
X4476953Y4347057D01*
X4473956Y4350105D01*
X4470349Y4352747D01*
X4464812Y4355236D01*
X4457344Y4356404D01*
X1258112Y4356404D01*
X1251610Y4355592D01*
X1246073Y4353509D01*
X1240942Y4349953D01*
X1237894Y4346956D01*
X1235252Y4343349D01*
X1232763Y4337812D01*
X1231595Y4330344D01*
X1231595Y1131112D01*
X1232408Y1124610D01*
X1234490Y1119073D01*
X1238046Y1113942D01*
X1240942Y1111046D01*
X1246073Y1107490D01*
X1251610Y1105408D01*
G37*
G36*
X381000Y2749042D02*
G01*
X395173Y2750007D01*
X409041Y2752750D01*
X422503Y2757322D01*
X435203Y2763570D01*
X446989Y2771495D01*
X457657Y2780842D01*
X467004Y2791510D01*
X474929Y2803296D01*
X481177Y2815996D01*
X485749Y2829458D01*
X488492Y2843326D01*
X489254Y2854858D01*
X490169Y2858363D01*
X492201Y2861360D01*
X1070610Y3439871D01*
X1076299Y3446678D01*
X1077722Y3448710D01*
X1082294Y3456330D01*
X1083411Y3458514D01*
X1086815Y3466744D01*
X1087577Y3469081D01*
X1089710Y3477666D01*
X1090117Y3480104D01*
X1090980Y3488944D01*
X1091031Y4311954D01*
X1091692Y4315510D01*
X1093520Y4318609D01*
X1101140Y4327296D01*
X1109014Y4339082D01*
X1115263Y4351782D01*
X1119835Y4365244D01*
X1122629Y4379163D01*
X1123543Y4393285D01*
X1122629Y4407458D01*
X1119835Y4421378D01*
X1115263Y4434789D01*
X1109014Y4447540D01*
X1101140Y4459325D01*
X1091793Y4469993D01*
X1081125Y4479340D01*
X1069340Y4487214D01*
X1056589Y4493463D01*
X1043178Y4498035D01*
X1029258Y4500829D01*
X1015085Y4501743D01*
X1000963Y4500829D01*
X987044Y4498035D01*
X973582Y4493463D01*
X960882Y4487214D01*
X949096Y4479340D01*
X938428Y4469993D01*
X929081Y4459325D01*
X921207Y4447540D01*
X914908Y4434789D01*
X910336Y4421378D01*
X907592Y4407458D01*
X906678Y4393285D01*
X907592Y4379163D01*
X910336Y4365244D01*
X914908Y4351782D01*
X921207Y4339082D01*
X929081Y4327296D01*
X936701Y4318609D01*
X938530Y4315510D01*
X939190Y4311904D01*
X939190Y3527247D01*
X938428Y3523386D01*
X936244Y3520084D01*
X384860Y2968701D01*
X381863Y2966669D01*
X378358Y2965754D01*
X366826Y2964992D01*
X352958Y2962249D01*
X339496Y2957677D01*
X326796Y2951429D01*
X315010Y2943504D01*
X304342Y2934157D01*
X294995Y2923489D01*
X287070Y2911703D01*
X280822Y2899003D01*
X276250Y2885541D01*
X273507Y2871673D01*
X272542Y2857500D01*
X273507Y2843326D01*
X276250Y2829458D01*
X280822Y2815996D01*
X287070Y2803296D01*
X294995Y2791510D01*
X304342Y2780842D01*
X315010Y2771495D01*
X326796Y2763570D01*
X339496Y2757322D01*
X352958Y2752750D01*
X366826Y2750007D01*
G37*
G36*
X5334000Y2749042D02*
G01*
X5348173Y2750007D01*
X5362041Y2752750D01*
X5375503Y2757322D01*
X5388203Y2763570D01*
X5399989Y2771495D01*
X5410657Y2780842D01*
X5420004Y2791510D01*
X5427929Y2803296D01*
X5434177Y2815996D01*
X5438749Y2829458D01*
X5441492Y2843326D01*
X5442458Y2857500D01*
X5441492Y2871673D01*
X5438749Y2885541D01*
X5434177Y2899003D01*
X5427929Y2911703D01*
X5420004Y2923489D01*
X5410657Y2934157D01*
X5399989Y2943504D01*
X5388203Y2951429D01*
X5375503Y2957677D01*
X5362041Y2962249D01*
X5348173Y2964992D01*
X5336641Y2965754D01*
X5333136Y2966669D01*
X5330139Y2968701D01*
X4778806Y3520033D01*
X4776571Y3523335D01*
X4775809Y3527247D01*
X4775809Y4311954D01*
X4776470Y4315510D01*
X4778349Y4318609D01*
X4785918Y4327296D01*
X4793792Y4339082D01*
X4800092Y4351782D01*
X4804664Y4365244D01*
X4807407Y4379163D01*
X4808321Y4393285D01*
X4807407Y4407458D01*
X4804664Y4421378D01*
X4800092Y4434789D01*
X4793792Y4447540D01*
X4785918Y4459325D01*
X4776571Y4469993D01*
X4765903Y4479340D01*
X4754118Y4487214D01*
X4741418Y4493463D01*
X4727956Y4498035D01*
X4714036Y4500829D01*
X4699914Y4501743D01*
X4685741Y4500829D01*
X4671822Y4498035D01*
X4658410Y4493463D01*
X4645660Y4487214D01*
X4633874Y4479340D01*
X4623206Y4469993D01*
X4613859Y4459325D01*
X4605985Y4447540D01*
X4599736Y4434789D01*
X4595164Y4421378D01*
X4592370Y4407458D01*
X4591456Y4393285D01*
X4592370Y4379163D01*
X4595164Y4365244D01*
X4599736Y4351782D01*
X4605985Y4339082D01*
X4613859Y4327296D01*
X4621479Y4318609D01*
X4623358Y4315510D01*
X4624019Y4311904D01*
X4624070Y3488944D01*
X4624882Y3480104D01*
X4625289Y3477666D01*
X4627422Y3469030D01*
X4628184Y3466693D01*
X4631588Y3458464D01*
X4632706Y3456279D01*
X4637328Y3448659D01*
X4644390Y3439820D01*
X5222798Y2861360D01*
X5224830Y2858363D01*
X5225745Y2854858D01*
X5226507Y2843326D01*
X5229250Y2829458D01*
X5233822Y2815996D01*
X5240070Y2803296D01*
X5247995Y2791510D01*
X5257342Y2780842D01*
X5268010Y2771495D01*
X5279796Y2763570D01*
X5292496Y2757322D01*
X5305958Y2752750D01*
X5319826Y2750007D01*
G37*
G36*
X1194714Y4464456D02*
G01*
X1208836Y4465370D01*
X1222756Y4468164D01*
X1236218Y4472736D01*
X1248918Y4478985D01*
X1260703Y4486859D01*
X1269390Y4494479D01*
X1272489Y4496308D01*
X1276045Y4496968D01*
X2099056Y4497019D01*
X2107895Y4497882D01*
X2110333Y4498289D01*
X2118918Y4500422D01*
X2121255Y4501184D01*
X2129485Y4504588D01*
X2131669Y4505706D01*
X2139289Y4510278D01*
X2141321Y4511700D01*
X2148128Y4517390D01*
X2726639Y5095798D01*
X2729636Y5097830D01*
X2733141Y5098745D01*
X2744673Y5099507D01*
X2758541Y5102250D01*
X2772003Y5106822D01*
X2784703Y5113070D01*
X2796489Y5120995D01*
X2807157Y5130342D01*
X2816504Y5141010D01*
X2824429Y5152796D01*
X2830677Y5165496D01*
X2835249Y5178958D01*
X2837992Y5192826D01*
X2838958Y5207000D01*
X2837992Y5221173D01*
X2835249Y5235041D01*
X2830677Y5248503D01*
X2824429Y5261203D01*
X2816504Y5272989D01*
X2807157Y5283657D01*
X2796489Y5293004D01*
X2784703Y5300929D01*
X2772003Y5307177D01*
X2758541Y5311749D01*
X2744673Y5314492D01*
X2730500Y5315458D01*
X2716326Y5314492D01*
X2702458Y5311749D01*
X2688996Y5307177D01*
X2676296Y5300929D01*
X2664510Y5293004D01*
X2653842Y5283657D01*
X2644495Y5272989D01*
X2636570Y5261203D01*
X2630322Y5248503D01*
X2625750Y5235041D01*
X2623007Y5221173D01*
X2622245Y5209641D01*
X2621330Y5206136D01*
X2619298Y5203139D01*
X2067915Y4651756D01*
X2064613Y4649571D01*
X2060752Y4648809D01*
X1276096Y4648809D01*
X1272489Y4649470D01*
X1269390Y4651298D01*
X1260703Y4658918D01*
X1248918Y4666792D01*
X1236218Y4673092D01*
X1222756Y4677664D01*
X1208836Y4680407D01*
X1194714Y4681321D01*
X1180541Y4680407D01*
X1166622Y4677664D01*
X1153210Y4673092D01*
X1140460Y4666792D01*
X1128674Y4658918D01*
X1118006Y4649571D01*
X1108659Y4638903D01*
X1100785Y4627118D01*
X1094536Y4614418D01*
X1089964Y4600956D01*
X1087170Y4587036D01*
X1086256Y4572914D01*
X1087170Y4558741D01*
X1089964Y4544822D01*
X1094536Y4531410D01*
X1100785Y4518660D01*
X1108659Y4506874D01*
X1118006Y4496206D01*
X1128674Y4486859D01*
X1140460Y4478985D01*
X1153210Y4472736D01*
X1166622Y4468164D01*
X1180541Y4465370D01*
G37*

%LPD*%
D10*
X2984497Y254002D02*
G01*
X3631283Y900788D01*
X4520308Y900788D01*
X4699911Y1080391D02*
G01*
X4699911Y1969416D01*
X5333997Y2603502D01*
X4699911Y4393288D02*
G01*
X4699911Y3491588D01*
X5333997Y2857502D01*
X2730497Y5207002D02*
G01*
X2096386Y4572891D01*
X1194711Y4572891D01*
X1015108Y4393288D02*
G01*
X1015108Y3491613D01*
X380997Y2857502D01*
X380997Y2603502D02*
G01*
X1015108Y1969391D01*
X1015108Y1067691D01*
X2730497Y254002D02*
G01*
X2730497Y889002D01*
X1194711Y888088D02*
G01*
X2729583Y888088D01*
X2730497Y889002D01*
D11*
G01*
X2984500Y889000D03*
D12*
G01*
X2730500Y889000D03*
D13*
G01*
X1194701Y888098D03*
G01*
X1015098Y1067701D03*
G01*
X381000Y2603500D03*
G01*
X381000Y2857500D03*
G01*
X1015098Y4393298D03*
G01*
X1194701Y4572901D03*
G01*
X2730500Y5207000D03*
G01*
X2984500Y5207000D03*
G01*
X4699901Y4393298D03*
G01*
X4520298Y4572901D03*
G01*
X5334000Y2603500D03*
G01*
X5334000Y2857500D03*
G01*
X4520298Y900798D03*
G01*
X4699901Y1080401D03*
G01*
X2730500Y254000D03*
G01*
X2984500Y254000D03*
M02*
